{
  "source": "C:\\Users\\Peter\\Desktop\\stuff\\MIUN\\quantitative_research\\video_compression\\videos\\HEVC_CLASS_B\\Kimono_1920x1080_24.y4m",
  "output": "C:\\Users\\Peter\\Desktop\\stuff\\MIUN\\quantitative_research\\video_compression\\compressed_videos\\HEVC_CLASS_B\\hevc\\1\\Kimono_1920x1080_24_hevc.mp4",
  "codec": "hevc",
  "ok": "Input #0, yuv4mpegpipe, from 'C:\\Users\\Peter\\Desktop\\stuff\\MIUN\\quantitative_research\\video_compression\\videos\\HEVC_CLASS_B\\Kimono_1920x1080_24.y4m':\n  Duration: 00:00:10.00, start: 0.000000, bitrate: 597198 kb/s\n  Stream #0:0: Video: rawvideo (I420 / 0x30323449), yuv420p(progressive), 1920x1080, 24 fps, 24 tbr, 24 tbn\n[out#0/mp4 @ 000002193bd7b580] Codec AVOption b:a (set bitrate (in bits/s)) has not been used for any stream. The most likely reason is either wrong type (e.g. a video option with no video streams) or that it is a private option of some decoder which was not actually used for any stream.\nStream mapping:\n  Stream #0:0 -> #0:0 (rawvideo (native) -> hevc (libx265))\nPress [q] to stop, [?] for help\n[libx265 @ 000002193bd7c940] Unknown option: \"aq-mode.\nx265 [info]: HEVC encoder version 4.1+190-8f11c33ac\nx265 [info]: build info [Windows][GCC 15.1.0][64 bit] 10bit\nx265 [info]: using cpu capabilities: MMX2 SSE2Fast LZCNT SSSE3 SSE4.2 AVX FMA3 BMI2 AVX2\nx265 [info]: Main 10 profile, Level-4 (Main tier)\nx265 [info]: Thread pool created using 12 threads\nx265 [info]: Slices                              : 1\nx265 [info]: frame threads / pool features       : 3 / wpp(17 rows)\nx265 [info]: Coding QT: max CU size, min CU size : 64 / 8\nx265 [info]: Residual QT: max TU size, max depth : 32 / 1 inter / 1 intra\nx265 [info]: ME / range / subpel / merge         : star / 57 / 3 / 3\nx265 [info]: Keyframe min / max / scenecut / bias  : 24 / 250 / 40 / 5.00 \nx265 [info]: Lookahead / bframes / badapt        : 25 / 4 / 2\nx265 [info]: b-pyramid / weightp / weightb       : 1 / 1 / 0\nx265 [info]: References / ref-limit  cu / depth  : 4 / on / on\nx265 [info]: AQ: mode / str / qg-size / cu-tree  : 2 / 1.0 / 32 / 1\nx265 [info]: Rate Control / qCompress            : ABR-1000 kbps / 0.60\nx265 [info]: VBV/HRD buffer / max-rate / init    : 1000 / 1000 / 0.750\nx265 [info]: tools: rect limit-modes rd=4 psy-rd=2.00 rdoq=2 psy-rdoq=1.00\nx265 [info]: tools: rskip mode=1 signhide tmvp strong-intra-smoothing lslices=4\nx265 [info]: tools: deblock sao dhdr10-info\nOutput #0, mp4, to 'C:\\Users\\Peter\\Desktop\\stuff\\MIUN\\quantitative_research\\video_compression\\compressed_videos\\HEVC_CLASS_B\\hevc\\1\\Kimono_1920x1080_24_hevc.mp4':\n  Metadata:\n    encoder         : Lavf62.3.100\n  Stream #0:0: Video: hevc (hev1 / 0x31766568), yuv420p10le(tv, progressive), 1920x1080, q=2-31, 1000 kb/s, 24 fps, 12288 tbn\n    Metadata:\n      encoder         : Lavc62.11.100 libx265\n    Side data:\n      cpb: bitrate max/min/avg: 1000000/0/1000000 buffer size: 1000000 vbv_delay: N/A\nframe=    0 fps=0.0 q=0.0 size=       0KiB time=N/A bitrate=N/A speed=N/A elapsed=0:00:00.58    \nframe=    0 fps=0.0 q=0.0 size=       0KiB time=N/A bitrate=N/A speed=N/A elapsed=0:00:01.19    \nframe=    0 fps=0.0 q=0.0 size=       0KiB time=N/A bitrate=N/A speed=N/A elapsed=0:00:01.72    \nframe=    0 fps=0.0 q=0.0 size=       0KiB time=N/A bitrate=N/A speed=N/A elapsed=0:00:02.26    \nframe=    0 fps=0.0 q=0.0 size=       0KiB time=N/A bitrate=N/A speed=N/A elapsed=0:00:02.78    \nframe=    0 fps=0.0 q=0.0 size=       0KiB time=N/A bitrate=N/A speed=N/A elapsed=0:00:03.31    \nframe=    0 fps=0.0 q=0.0 size=       0KiB time=N/A bitrate=N/A speed=N/A elapsed=0:00:03.85    \nframe=    0 fps=0.0 q=0.0 size=       0KiB time=N/A bitrate=N/A speed=N/A elapsed=0:00:04.42    \nframe=    0 fps=0.0 q=0.0 size=       0KiB time=N/A bitrate=N/A speed=N/A elapsed=0:00:04.96    \nframe=    0 fps=0.0 q=0.0 size=       0KiB time=N/A bitrate=N/A speed=N/A elapsed=0:00:05.52    \nframe=    0 fps=0.0 q=0.0 size=       0KiB time=N/A bitrate=N/A speed=N/A elapsed=0:00:06.05    \nframe=    0 fps=0.0 q=0.0 size=       0KiB time=N/A bitrate=N/A speed=N/A elapsed=0:00:06.63    \nframe=    0 fps=0.0 q=0.0 size=       0KiB time=N/A bitrate=N/A speed=N/A elapsed=0:00:07.20    \nframe=    0 fps=0.0 q=0.0 size=       0KiB time=N/A bitrate=N/A speed=N/A elapsed=0:00:07.74    \nframe=    0 fps=0.0 q=0.0 size=       0KiB time=N/A bitrate=N/A speed=N/A elapsed=0:00:08.29    \nframe=    0 fps=0.0 q=0.0 size=       0KiB time=N/A bitrate=N/A speed=N/A elapsed=0:00:08.86    \nframe=    0 fps=0.0 q=0.0 size=       0KiB time=N/A bitrate=N/A speed=N/A elapsed=0:00:09.38    \nframe=    0 fps=0.0 q=0.0 size=       0KiB time=N/A bitrate=N/A speed=N/A elapsed=0:00:09.92    \nframe=    0 fps=0.0 q=0.0 size=       0KiB time=N/A bitrate=N/A speed=N/A elapsed=0:00:10.45    \nframe=    1 fps=0.1 q=40.3 size=       0KiB time=-00:00:00.04 bitrate=N/A speed=N/A elapsed=0:00:10.97    \nframe=    1 fps=0.1 q=40.3 size=       0KiB time=-00:00:00.04 bitrate=N/A speed=N/A elapsed=0:00:11.49    \nframe=    1 fps=0.1 q=40.3 size=       0KiB time=-00:00:00.04 bitrate=N/A speed=N/A elapsed=0:00:12.04    \nframe=    1 fps=0.1 q=40.3 size=       0KiB time=-00:00:00.04 bitrate=N/A speed=N/A elapsed=0:00:12.56    \nframe=    2 fps=0.2 q=44.4 size=       0KiB time=00:00:00.00 bitrate=N/A speed=   0x elapsed=0:00:13.10    \nframe=    2 fps=0.1 q=44.4 size=       0KiB time=00:00:00.00 bitrate=N/A speed=   0x elapsed=0:00:13.62    \nframe=    3 fps=0.2 q=47.8 size=       0KiB time=00:00:00.04 bitrate=   8.4kbits/s speed=0.00294x elapsed=0:00:14.15    \nframe=    3 fps=0.2 q=47.8 size=       0KiB time=00:00:00.04 bitrate=   8.4kbits/s speed=0.00284x elapsed=0:00:14.66    \nframe=    3 fps=0.2 q=47.8 size=       0KiB time=00:00:00.04 bitrate=   8.4kbits/s speed=0.00274x elapsed=0:00:15.19    \nframe=    3 fps=0.2 q=47.8 size=       0KiB time=00:00:00.04 bitrate=   8.4kbits/s speed=0.00265x elapsed=0:00:15.70    \nframe=    3 fps=0.2 q=47.8 size=       0KiB time=00:00:00.04 bitrate=   8.4kbits/s speed=0.00256x elapsed=0:00:16.27    \nframe=    3 fps=0.2 q=47.8 size=       0KiB time=00:00:00.04 bitrate=   8.4kbits/s speed=0.00247x elapsed=0:00:16.85    \nframe=    3 fps=0.2 q=47.8 size=       0KiB time=00:00:00.04 bitrate=   8.4kbits/s speed=0.00239x elapsed=0:00:17.42    \nframe=    3 fps=0.2 q=47.8 size=       0KiB time=00:00:00.04 bitrate=   8.4kbits/s speed=0.00232x elapsed=0:00:17.97    \nframe=    4 fps=0.2 q=49.9 size=       0KiB time=00:00:00.08 bitrate=   4.2kbits/s speed=0.00451x elapsed=0:00:18.49    \nframe=    4 fps=0.2 q=49.9 size=       0KiB time=00:00:00.08 bitrate=   4.2kbits/s speed=0.00437x elapsed=0:00:19.07    \nframe=    4 fps=0.2 q=49.9 size=       0KiB time=00:00:00.08 bitrate=   4.2kbits/s speed=0.00425x elapsed=0:00:19.60    \nframe=    4 fps=0.2 q=49.9 size=       0KiB time=00:00:00.08 bitrate=   4.2kbits/s speed=0.00414x elapsed=0:00:20.14    \nframe=    5 fps=0.2 q=47.5 size=       0KiB time=00:00:00.12 bitrate=   2.8kbits/s speed=0.00605x elapsed=0:00:20.66    \nframe=    5 fps=0.2 q=47.5 size=       0KiB time=00:00:00.12 bitrate=   2.8kbits/s speed=0.0059x elapsed=0:00:21.20    \nframe=    6 fps=0.3 q=40.3 size=       0KiB time=00:00:00.16 bitrate=   2.1kbits/s speed=0.00767x elapsed=0:00:21.72    \nframe=    6 fps=0.3 q=40.3 size=       0KiB time=00:00:00.16 bitrate=   2.1kbits/s speed=0.00749x elapsed=0:00:22.25    \nframe=    6 fps=0.3 q=40.3 size=       0KiB time=00:00:00.16 bitrate=   2.1kbits/s speed=0.00731x elapsed=0:00:22.80    \nframe=    7 fps=0.3 q=44.7 size=       0KiB time=00:00:00.20 bitrate=   1.7kbits/s speed=0.00893x elapsed=0:00:23.32    \nframe=    8 fps=0.3 q=44.9 size=       0KiB time=00:00:00.25 bitrate=   1.4kbits/s speed=0.0105x elapsed=0:00:23.88    \nframe=    8 fps=0.3 q=44.9 size=       0KiB time=00:00:00.25 bitrate=   1.4kbits/s speed=0.0102x elapsed=0:00:24.40    \nframe=    8 fps=0.3 q=44.9 size=       0KiB time=00:00:00.25 bitrate=   1.4kbits/s speed=0.01x elapsed=0:00:24.98    \nframe=    8 fps=0.3 q=44.9 size=       0KiB time=00:00:00.25 bitrate=   1.4kbits/s speed=0.0098x elapsed=0:00:25.50    \nframe=    8 fps=0.3 q=44.9 size=       0KiB time=00:00:00.25 bitrate=   1.4kbits/s speed=0.00959x elapsed=0:00:26.05    \nframe=    8 fps=0.3 q=44.9 size=       0KiB time=00:00:00.25 bitrate=   1.4kbits/s speed=0.0094x elapsed=0:00:26.60    \nframe=    8 fps=0.3 q=44.9 size=       0KiB time=00:00:00.25 bitrate=   1.4kbits/s speed=0.00921x elapsed=0:00:27.14    \nframe=    8 fps=0.3 q=44.9 size=       0KiB time=00:00:00.25 bitrate=   1.4kbits/s speed=0.00903x elapsed=0:00:27.69    \nframe=    8 fps=0.3 q=44.9 size=       0KiB time=00:00:00.25 bitrate=   1.4kbits/s speed=0.00884x elapsed=0:00:28.28    \nframe=    8 fps=0.3 q=44.9 size=       0KiB time=00:00:00.25 bitrate=   1.4kbits/s speed=0.00867x elapsed=0:00:28.83    \nframe=    9 fps=0.3 q=45.3 size=       0KiB time=00:00:00.29 bitrate=   1.2kbits/s speed=0.00991x elapsed=0:00:29.42    \nframe=    9 fps=0.3 q=45.3 size=       0KiB time=00:00:00.29 bitrate=   1.2kbits/s speed=0.00972x elapsed=0:00:29.99    \nframe=    9 fps=0.3 q=45.3 size=       0KiB time=00:00:00.29 bitrate=   1.2kbits/s speed=0.00955x elapsed=0:00:30.54    \nframe=    9 fps=0.3 q=45.3 size=       0KiB time=00:00:00.29 bitrate=   1.2kbits/s speed=0.00935x elapsed=0:00:31.20    \nframe=    9 fps=0.3 q=45.3 size=       0KiB time=00:00:00.29 bitrate=   1.2kbits/s speed=0.00919x elapsed=0:00:31.74    \nframe=    9 fps=0.3 q=45.3 size=       0KiB time=00:00:00.29 bitrate=   1.2kbits/s speed=0.00901x elapsed=0:00:32.37    \nframe=    9 fps=0.3 q=45.3 size=       0KiB time=00:00:00.29 bitrate=   1.2kbits/s speed=0.00886x elapsed=0:00:32.91    \nframe=    9 fps=0.3 q=45.3 size=       0KiB time=00:00:00.29 bitrate=   1.2kbits/s speed=0.00873x elapsed=0:00:33.42    \nframe=   10 fps=0.3 q=44.1 size=       0KiB time=00:00:00.33 bitrate=   1.1kbits/s speed=0.00981x elapsed=0:00:33.96    \nframe=   10 fps=0.3 q=44.1 size=       0KiB time=00:00:00.33 bitrate=   1.1kbits/s speed=0.00966x elapsed=0:00:34.51    \nframe=   10 fps=0.3 q=44.1 size=       0KiB time=00:00:00.33 bitrate=   1.1kbits/s speed=0.0095x elapsed=0:00:35.10    \nframe=   10 fps=0.3 q=44.1 size=       0KiB time=00:00:00.33 bitrate=   1.1kbits/s speed=0.00934x elapsed=0:00:35.69    \nframe=   10 fps=0.3 q=44.1 size=       0KiB time=00:00:00.33 bitrate=   1.1kbits/s speed=0.00919x elapsed=0:00:36.25    \nframe=   10 fps=0.3 q=44.1 size=       0KiB time=00:00:00.33 bitrate=   1.1kbits/s speed=0.00905x elapsed=0:00:36.82    \nframe=   10 fps=0.3 q=44.1 size=       0KiB time=00:00:00.33 bitrate=   1.1kbits/s speed=0.00893x elapsed=0:00:37.34    \nframe=   11 fps=0.3 q=39.3 size=       0KiB time=00:00:00.37 bitrate=   0.9kbits/s speed=0.00989x elapsed=0:00:37.93    \nframe=   11 fps=0.3 q=39.3 size=       0KiB time=00:00:00.37 bitrate=   0.9kbits/s speed=0.00974x elapsed=0:00:38.49    \nframe=   11 fps=0.3 q=39.3 size=       0KiB time=00:00:00.37 bitrate=   0.9kbits/s speed=0.0096x elapsed=0:00:39.05    \nframe=   11 fps=0.3 q=39.3 size=       0KiB time=00:00:00.37 bitrate=   0.9kbits/s speed=0.00947x elapsed=0:00:39.61    \nframe=   12 fps=0.3 q=42.2 size=       0KiB time=00:00:00.41 bitrate=   0.8kbits/s speed=0.0104x elapsed=0:00:40.17    \nframe=   12 fps=0.3 q=42.2 size=       0KiB time=00:00:00.41 bitrate=   0.8kbits/s speed=0.0102x elapsed=0:00:40.75    \nframe=   12 fps=0.3 q=42.2 size=       0KiB time=00:00:00.41 bitrate=   0.8kbits/s speed=0.0101x elapsed=0:00:41.39    \nframe=   12 fps=0.3 q=42.2 size=       0KiB time=00:00:00.41 bitrate=   0.8kbits/s speed=0.00994x elapsed=0:00:41.91    \nframe=   12 fps=0.3 q=42.2 size=       0KiB time=00:00:00.41 bitrate=   0.8kbits/s speed=0.00982x elapsed=0:00:42.44    \nframe=   12 fps=0.3 q=42.2 size=       0KiB time=00:00:00.41 bitrate=   0.8kbits/s speed=0.00968x elapsed=0:00:43.03    \nframe=   12 fps=0.3 q=42.2 size=       0KiB time=00:00:00.41 bitrate=   0.8kbits/s speed=0.00955x elapsed=0:00:43.62    \nframe=   12 fps=0.3 q=42.2 size=       0KiB time=00:00:00.41 bitrate=   0.8kbits/s speed=0.00943x elapsed=0:00:44.20    \nframe=   13 fps=0.3 q=44.3 size=       0KiB time=00:00:00.45 bitrate=   0.8kbits/s speed=0.0102x elapsed=0:00:44.75    \nframe=   13 fps=0.3 q=44.3 size=       0KiB time=00:00:00.45 bitrate=   0.8kbits/s speed=0.0101x elapsed=0:00:45.38    \nframe=   13 fps=0.3 q=44.3 size=       0KiB time=00:00:00.45 bitrate=   0.8kbits/s speed=0.00997x elapsed=0:00:45.99    \nframe=   13 fps=0.3 q=44.3 size=       0KiB time=00:00:00.45 bitrate=   0.8kbits/s speed=0.00982x elapsed=0:00:46.69    \nframe=   13 fps=0.3 q=44.3 size=       0KiB time=00:00:00.45 bitrate=   0.8kbits/s speed=0.00968x elapsed=0:00:47.36    \nframe=   13 fps=0.3 q=44.3 size=       0KiB time=00:00:00.45 bitrate=   0.8kbits/s speed=0.00955x elapsed=0:00:47.98    \nframe=   13 fps=0.3 q=44.3 size=       0KiB time=00:00:00.45 bitrate=   0.8kbits/s speed=0.0094x elapsed=0:00:48.74    \nframe=   13 fps=0.3 q=44.3 size=       0KiB time=00:00:00.45 bitrate=   0.8kbits/s speed=0.00927x elapsed=0:00:49.43    \nframe=   13 fps=0.3 q=44.3 size=       0KiB time=00:00:00.45 bitrate=   0.8kbits/s speed=0.00916x elapsed=0:00:50.02    \nframe=   13 fps=0.3 q=44.3 size=       0KiB time=00:00:00.45 bitrate=   0.8kbits/s speed=0.00905x elapsed=0:00:50.63    \nframe=   13 fps=0.3 q=44.3 size=       0KiB time=00:00:00.45 bitrate=   0.8kbits/s speed=0.00893x elapsed=0:00:51.30    \nframe=   13 fps=0.3 q=44.3 size=       0KiB time=00:00:00.45 bitrate=   0.8kbits/s speed=0.00881x elapsed=0:00:51.99    \nframe=   13 fps=0.2 q=44.3 size=       0KiB time=00:00:00.45 bitrate=   0.8kbits/s speed=0.00871x elapsed=0:00:52.65    \nframe=   13 fps=0.2 q=44.3 size=       0KiB time=00:00:00.45 bitrate=   0.8kbits/s speed=0.00858x elapsed=0:00:53.40    \nframe=   13 fps=0.2 q=44.3 size=       0KiB time=00:00:00.45 bitrate=   0.8kbits/s speed=0.00848x elapsed=0:00:54.07    \nframe=   13 fps=0.2 q=44.3 size=       0KiB time=00:00:00.45 bitrate=   0.8kbits/s speed=0.00837x elapsed=0:00:54.75    \nframe=   13 fps=0.2 q=44.3 size=       0KiB time=00:00:00.45 bitrate=   0.8kbits/s speed=0.00826x elapsed=0:00:55.51    \nframe=   13 fps=0.2 q=44.3 size=       0KiB time=00:00:00.45 bitrate=   0.8kbits/s speed=0.00817x elapsed=0:00:56.10    \nframe=   14 fps=0.2 q=44.0 size=       0KiB time=00:00:00.50 bitrate=   0.7kbits/s speed=0.00882x elapsed=0:00:56.66    \nframe=   14 fps=0.2 q=44.0 size=       0KiB time=00:00:00.50 bitrate=   0.7kbits/s speed=0.00874x elapsed=0:00:57.21    \nframe=   14 fps=0.2 q=44.0 size=       0KiB time=00:00:00.50 bitrate=   0.7kbits/s speed=0.00866x elapsed=0:00:57.76    \nframe=   14 fps=0.2 q=44.0 size=       0KiB time=00:00:00.50 bitrate=   0.7kbits/s speed=0.00858x elapsed=0:00:58.28    \nframe=   14 fps=0.2 q=44.0 size=       0KiB time=00:00:00.50 bitrate=   0.7kbits/s speed=0.0085x elapsed=0:00:58.83    \nframe=   15 fps=0.3 q=38.9 size=       0KiB time=00:00:00.54 bitrate=   0.6kbits/s speed=0.0091x elapsed=0:00:59.49    \nframe=   15 fps=0.2 q=38.9 size=       0KiB time=00:00:00.54 bitrate=   0.6kbits/s speed=0.00901x elapsed=0:01:00.09    \nframe=   15 fps=0.2 q=38.9 size=       0KiB time=00:00:00.54 bitrate=   0.6kbits/s speed=0.00893x elapsed=0:01:00.68    \nframe=   15 fps=0.2 q=38.9 size=       0KiB time=00:00:00.54 bitrate=   0.6kbits/s speed=0.00884x elapsed=0:01:01.27    \nframe=   15 fps=0.2 q=38.9 size=       0KiB time=00:00:00.54 bitrate=   0.6kbits/s speed=0.00876x elapsed=0:01:01.84    \nframe=   15 fps=0.2 q=38.9 size=       0KiB time=00:00:00.54 bitrate=   0.6kbits/s speed=0.00867x elapsed=0:01:02.47    \nframe=   15 fps=0.2 q=38.9 size=       0KiB time=00:00:00.54 bitrate=   0.6kbits/s speed=0.00859x elapsed=0:01:03.04    \nframe=   16 fps=0.3 q=41.3 size=       0KiB time=00:00:00.58 bitrate=   0.6kbits/s speed=0.00917x elapsed=0:01:03.58    \nframe=   16 fps=0.2 q=41.3 size=       0KiB time=00:00:00.58 bitrate=   0.6kbits/s speed=0.00909x elapsed=0:01:04.15    \nframe=   16 fps=0.2 q=41.3 size=       0KiB time=00:00:00.58 bitrate=   0.6kbits/s speed=0.009x elapsed=0:01:04.80    \nframe=   16 fps=0.2 q=41.3 size=       0KiB time=00:00:00.58 bitrate=   0.6kbits/s speed=0.00892x elapsed=0:01:05.39    \nframe=   16 fps=0.2 q=41.3 size=       0KiB time=00:00:00.58 bitrate=   0.6kbits/s speed=0.00885x elapsed=0:01:05.90    \nframe=   16 fps=0.2 q=41.3 size=       0KiB time=00:00:00.58 bitrate=   0.6kbits/s speed=0.00878x elapsed=0:01:06.44    \nframe=   16 fps=0.2 q=41.3 size=       0KiB time=00:00:00.58 bitrate=   0.6kbits/s speed=0.0087x elapsed=0:01:07.03    \nframe=   16 fps=0.2 q=41.3 size=       0KiB time=00:00:00.58 bitrate=   0.6kbits/s speed=0.00863x elapsed=0:01:07.57    \nframe=   16 fps=0.2 q=41.3 size=       0KiB time=00:00:00.58 bitrate=   0.6kbits/s speed=0.00856x elapsed=0:01:08.12    \nframe=   16 fps=0.2 q=41.3 size=       0KiB time=00:00:00.58 bitrate=   0.6kbits/s speed=0.00849x elapsed=0:01:08.73    \nframe=   16 fps=0.2 q=41.3 size=       0KiB time=00:00:00.58 bitrate=   0.6kbits/s speed=0.00842x elapsed=0:01:09.24    \nframe=   17 fps=0.2 q=43.4 size=       0KiB time=00:00:00.62 bitrate=   0.6kbits/s speed=0.00896x elapsed=0:01:09.77    \nframe=   17 fps=0.2 q=43.4 size=       0KiB time=00:00:00.62 bitrate=   0.6kbits/s speed=0.00888x elapsed=0:01:10.38    \nframe=   17 fps=0.2 q=43.4 size=       0KiB time=00:00:00.62 bitrate=   0.6kbits/s speed=0.00882x elapsed=0:01:10.89    \nframe=   17 fps=0.2 q=43.4 size=       0KiB time=00:00:00.62 bitrate=   0.6kbits/s speed=0.00875x elapsed=0:01:11.46    \nframe=   18 fps=0.2 q=43.6 size=       0KiB time=00:00:00.66 bitrate=   0.5kbits/s speed=0.00924x elapsed=0:01:12.14    \nframe=   18 fps=0.2 q=43.6 size=       0KiB time=00:00:00.66 bitrate=   0.5kbits/s speed=0.00916x elapsed=0:01:12.76    \nframe=   18 fps=0.2 q=43.6 size=       0KiB time=00:00:00.66 bitrate=   0.5kbits/s speed=0.00908x elapsed=0:01:13.40    \nframe=   18 fps=0.2 q=43.6 size=       0KiB time=00:00:00.66 bitrate=   0.5kbits/s speed=0.00901x elapsed=0:01:13.97    \nframe=   19 fps=0.3 q=39.1 size=       0KiB time=00:00:00.70 bitrate=   0.5kbits/s speed=0.0095x elapsed=0:01:14.54    \nframe=   19 fps=0.3 q=39.1 size=       0KiB time=00:00:00.70 bitrate=   0.5kbits/s speed=0.00943x elapsed=0:01:15.08    \nframe=   20 fps=0.3 q=39.7 size=       0KiB time=00:00:00.75 bitrate=   0.5kbits/s speed=0.00991x elapsed=0:01:15.69    \nframe=   21 fps=0.3 q=44.3 size=       0KiB time=00:00:00.79 bitrate=   0.4kbits/s speed=0.0104x elapsed=0:01:16.31    \nframe=   21 fps=0.3 q=44.3 size=       0KiB time=00:00:00.79 bitrate=   0.4kbits/s speed=0.0103x elapsed=0:01:16.86    \nframe=   21 fps=0.3 q=44.3 size=       0KiB time=00:00:00.79 bitrate=   0.4kbits/s speed=0.0102x elapsed=0:01:17.53    \nframe=   21 fps=0.3 q=44.3 size=       0KiB time=00:00:00.79 bitrate=   0.4kbits/s speed=0.0101x elapsed=0:01:18.13    \nframe=   21 fps=0.3 q=44.3 size=       0KiB time=00:00:00.79 bitrate=   0.4kbits/s speed=0.0101x elapsed=0:01:18.70    \nframe=   21 fps=0.3 q=44.3 size=       0KiB time=00:00:00.79 bitrate=   0.4kbits/s speed=0.00998x elapsed=0:01:19.31    \nframe=   21 fps=0.3 q=44.3 size=       0KiB time=00:00:00.79 bitrate=   0.4kbits/s speed=0.00991x elapsed=0:01:19.92    \nframe=   21 fps=0.3 q=44.3 size=       0KiB time=00:00:00.79 bitrate=   0.4kbits/s speed=0.00983x elapsed=0:01:20.53    \nframe=   21 fps=0.3 q=44.3 size=       0KiB time=00:00:00.79 bitrate=   0.4kbits/s speed=0.00976x elapsed=0:01:21.10    \nframe=   22 fps=0.3 q=44.2 size=       0KiB time=00:00:00.83 bitrate=   0.4kbits/s speed=0.0102x elapsed=0:01:21.67    \nframe=   22 fps=0.3 q=44.2 size=       0KiB time=00:00:00.83 bitrate=   0.4kbits/s speed=0.0101x elapsed=0:01:22.18    \nframe=   22 fps=0.3 q=44.2 size=       0KiB time=00:00:00.83 bitrate=   0.4kbits/s speed=0.0101x elapsed=0:01:22.78    \nframe=   22 fps=0.3 q=44.2 size=       0KiB time=00:00:00.83 bitrate=   0.4kbits/s speed=0.00999x elapsed=0:01:23.37    \nframe=   22 fps=0.3 q=44.2 size=       0KiB time=00:00:00.83 bitrate=   0.4kbits/s speed=0.00993x elapsed=0:01:23.93    \nframe=   22 fps=0.3 q=44.2 size=       0KiB time=00:00:00.83 bitrate=   0.4kbits/s speed=0.00985x elapsed=0:01:24.58    \nframe=   22 fps=0.3 q=44.2 size=       0KiB time=00:00:00.83 bitrate=   0.4kbits/s speed=0.00978x elapsed=0:01:25.17    \nframe=   22 fps=0.3 q=44.2 size=       0KiB time=00:00:00.83 bitrate=   0.4kbits/s speed=0.00972x elapsed=0:01:25.76    \nframe=   22 fps=0.3 q=44.2 size=       0KiB time=00:00:00.83 bitrate=   0.4kbits/s speed=0.00965x elapsed=0:01:26.31    \nframe=   22 fps=0.3 q=44.2 size=       0KiB time=00:00:00.83 bitrate=   0.4kbits/s speed=0.00959x elapsed=0:01:26.93    \nframe=   22 fps=0.3 q=44.2 size=       0KiB time=00:00:00.83 bitrate=   0.4kbits/s speed=0.00951x elapsed=0:01:27.63    \nframe=   22 fps=0.2 q=44.2 size=       0KiB time=00:00:00.83 bitrate=   0.4kbits/s speed=0.00944x elapsed=0:01:28.31    \nframe=   22 fps=0.2 q=44.2 size=       0KiB time=00:00:00.83 bitrate=   0.4kbits/s speed=0.00937x elapsed=0:01:28.97    \nframe=   22 fps=0.2 q=44.2 size=       0KiB time=00:00:00.83 bitrate=   0.4kbits/s speed=0.00931x elapsed=0:01:29.55    \nframe=   22 fps=0.2 q=44.2 size=       0KiB time=00:00:00.83 bitrate=   0.4kbits/s speed=0.00924x elapsed=0:01:30.17    \nframe=   22 fps=0.2 q=44.2 size=       0KiB time=00:00:00.83 bitrate=   0.4kbits/s speed=0.00917x elapsed=0:01:30.86    \nframe=   23 fps=0.3 q=43.9 size=       0KiB time=00:00:00.87 bitrate=   0.4kbits/s speed=0.00957x elapsed=0:01:31.41    \nframe=   23 fps=0.2 q=43.9 size=       0KiB time=00:00:00.87 bitrate=   0.4kbits/s speed=0.00951x elapsed=0:01:32.01    \nframe=   23 fps=0.2 q=43.9 size=       0KiB time=00:00:00.87 bitrate=   0.4kbits/s speed=0.00945x elapsed=0:01:32.61    \nframe=   23 fps=0.2 q=43.9 size=       0KiB time=00:00:00.87 bitrate=   0.4kbits/s speed=0.00939x elapsed=0:01:33.23    \nframe=   23 fps=0.2 q=43.9 size=       0KiB time=00:00:00.87 bitrate=   0.4kbits/s speed=0.00932x elapsed=0:01:33.88    \nframe=   23 fps=0.2 q=43.9 size=       0KiB time=00:00:00.87 bitrate=   0.4kbits/s speed=0.00925x elapsed=0:01:34.57    \nframe=   23 fps=0.2 q=43.9 size=       0KiB time=00:00:00.87 bitrate=   0.4kbits/s speed=0.00919x elapsed=0:01:35.22    \nframe=   23 fps=0.2 q=43.9 size=       0KiB time=00:00:00.87 bitrate=   0.4kbits/s speed=0.00913x elapsed=0:01:35.81    \nframe=   24 fps=0.2 q=38.8 size=       0KiB time=00:00:00.91 bitrate=   0.4kbits/s speed=0.00951x elapsed=0:01:36.35    \nframe=   25 fps=0.3 q=39.5 size=       0KiB time=00:00:00.95 bitrate=   0.4kbits/s speed=0.00988x elapsed=0:01:36.98    \nframe=   25 fps=0.3 q=39.5 size=       0KiB time=00:00:00.95 bitrate=   0.4kbits/s speed=0.00982x elapsed=0:01:37.58    \nframe=   25 fps=0.3 q=39.5 size=       0KiB time=00:00:00.95 bitrate=   0.4kbits/s speed=0.00976x elapsed=0:01:38.14    \nframe=   25 fps=0.3 q=39.5 size=       0KiB time=00:00:00.95 bitrate=   0.4kbits/s speed=0.00971x elapsed=0:01:38.66    \nframe=   25 fps=0.3 q=39.5 size=       0KiB time=00:00:00.95 bitrate=   0.4kbits/s speed=0.00966x elapsed=0:01:39.18    \nframe=   26 fps=0.3 q=44.3 size=       0KiB time=00:00:01.00 bitrate=   0.4kbits/s speed=0.01x elapsed=0:01:39.76    \nframe=   26 fps=0.3 q=44.3 size=       0KiB time=00:00:01.00 bitrate=   0.4kbits/s speed=0.00997x elapsed=0:01:40.34    \nframe=   26 fps=0.3 q=44.3 size=       0KiB time=00:00:01.00 bitrate=   0.4kbits/s speed=0.00991x elapsed=0:01:40.92    \nframe=   26 fps=0.3 q=44.3 size=       0KiB time=00:00:01.00 bitrate=   0.4kbits/s speed=0.00985x elapsed=0:01:41.48    \nframe=   26 fps=0.3 q=44.3 size=       0KiB time=00:00:01.00 bitrate=   0.4kbits/s speed=0.0098x elapsed=0:01:42.01    \nframe=   26 fps=0.3 q=44.3 size=       0KiB time=00:00:01.00 bitrate=   0.4kbits/s speed=0.00975x elapsed=0:01:42.58    \nframe=   26 fps=0.3 q=44.3 size=       0KiB time=00:00:01.00 bitrate=   0.4kbits/s speed=0.0097x elapsed=0:01:43.12    \nframe=   26 fps=0.3 q=44.3 size=       0KiB time=00:00:01.00 bitrate=   0.4kbits/s speed=0.00964x elapsed=0:01:43.70    \nframe=   26 fps=0.2 q=44.3 size=       0KiB time=00:00:01.00 bitrate=   0.4kbits/s speed=0.00959x elapsed=0:01:44.23    \nframe=   26 fps=0.2 q=44.3 size=       0KiB time=00:00:01.00 bitrate=   0.4kbits/s speed=0.00955x elapsed=0:01:44.75    \nframe=   26 fps=0.2 q=44.3 size=       0KiB time=00:00:01.00 bitrate=   0.4kbits/s speed=0.0095x elapsed=0:01:45.30    \nframe=   27 fps=0.3 q=44.1 size=       0KiB time=00:00:01.04 bitrate=   0.3kbits/s speed=0.00984x elapsed=0:01:45.89    \nframe=   27 fps=0.3 q=44.1 size=       0KiB time=00:00:01.04 bitrate=   0.3kbits/s speed=0.00979x elapsed=0:01:46.42    \nframe=   27 fps=0.3 q=44.1 size=       0KiB time=00:00:01.04 bitrate=   0.3kbits/s speed=0.00974x elapsed=0:01:46.96    \nframe=   27 fps=0.3 q=44.1 size=       0KiB time=00:00:01.04 bitrate=   0.3kbits/s speed=0.00969x elapsed=0:01:47.49    \nframe=   28 fps=0.3 q=43.9 size=       0KiB time=00:00:01.08 bitrate=   0.3kbits/s speed=0.01x elapsed=0:01:48.03    \nframe=   29 fps=0.3 q=38.6 size=       0KiB time=00:00:01.12 bitrate=   0.3kbits/s speed=0.0104x elapsed=0:01:48.56    \nframe=   29 fps=0.3 q=38.6 size=       0KiB time=00:00:01.12 bitrate=   0.3kbits/s speed=0.0103x elapsed=0:01:49.10    \nframe=   29 fps=0.3 q=38.6 size=       0KiB time=00:00:01.12 bitrate=   0.3kbits/s speed=0.0103x elapsed=0:01:49.68    \nframe=   30 fps=0.3 q=40.8 size=       0KiB time=00:00:01.16 bitrate=   0.3kbits/s speed=0.0106x elapsed=0:01:50.22    \nframe=   30 fps=0.3 q=40.8 size=       0KiB time=00:00:01.16 bitrate=   0.3kbits/s speed=0.0105x elapsed=0:01:50.76    \nframe=   30 fps=0.3 q=40.8 size=       0KiB time=00:00:01.16 bitrate=   0.3kbits/s speed=0.0105x elapsed=0:01:51.28    \nframe=   30 fps=0.3 q=40.8 size=       0KiB time=00:00:01.16 bitrate=   0.3kbits/s speed=0.0104x elapsed=0:01:51.85    \nframe=   30 fps=0.3 q=40.8 size=       0KiB time=00:00:01.16 bitrate=   0.3kbits/s speed=0.0104x elapsed=0:01:52.42    \nframe=   30 fps=0.3 q=40.8 size=       0KiB time=00:00:01.16 bitrate=   0.3kbits/s speed=0.0103x elapsed=0:01:52.94    \nframe=   30 fps=0.3 q=40.8 size=       0KiB time=00:00:01.16 bitrate=   0.3kbits/s speed=0.0103x elapsed=0:01:53.49    \nframe=   30 fps=0.3 q=40.8 size=       0KiB time=00:00:01.16 bitrate=   0.3kbits/s speed=0.0102x elapsed=0:01:54.02    \nframe=   30 fps=0.3 q=40.8 size=       0KiB time=00:00:01.16 bitrate=   0.3kbits/s speed=0.0102x elapsed=0:01:54.62    \nframe=   30 fps=0.3 q=40.8 size=       0KiB time=00:00:01.16 bitrate=   0.3kbits/s speed=0.0101x elapsed=0:01:55.27    \nframe=   31 fps=0.3 q=43.8 size=       0KiB time=00:00:01.20 bitrate=   0.3kbits/s speed=0.0104x elapsed=0:01:55.85    \nframe=   31 fps=0.3 q=43.8 size=       0KiB time=00:00:01.20 bitrate=   0.3kbits/s speed=0.0104x elapsed=0:01:56.41    \nframe=   31 fps=0.3 q=43.8 size=       0KiB time=00:00:01.20 bitrate=   0.3kbits/s speed=0.0103x elapsed=0:01:56.93    \nframe=   31 fps=0.3 q=43.8 size=       0KiB time=00:00:01.20 bitrate=   0.3kbits/s speed=0.0103x elapsed=0:01:57.45    \nframe=   31 fps=0.3 q=43.8 size=       0KiB time=00:00:01.20 bitrate=   0.3kbits/s speed=0.0102x elapsed=0:01:57.99    \nframe=   31 fps=0.3 q=43.8 size=       0KiB time=00:00:01.20 bitrate=   0.3kbits/s speed=0.0102x elapsed=0:01:58.51    \nframe=   32 fps=0.3 q=43.3 size=       0KiB time=00:00:01.20 bitrate=   0.3kbits/s speed=0.0101x elapsed=0:01:59.06    \nframe=   32 fps=0.3 q=43.3 size=       0KiB time=00:00:01.25 bitrate=   0.3kbits/s speed=0.0104x elapsed=0:01:59.62    \nframe=   32 fps=0.3 q=43.3 size=       0KiB time=00:00:01.25 bitrate=   0.3kbits/s speed=0.0104x elapsed=0:02:00.19    \nframe=   32 fps=0.3 q=43.3 size=       0KiB time=00:00:01.25 bitrate=   0.3kbits/s speed=0.0104x elapsed=0:02:00.72    \nframe=   33 fps=0.3 q=38.4 size=       0KiB time=00:00:01.29 bitrate=   0.3kbits/s speed=0.0106x elapsed=0:02:01.29    \nframe=   33 fps=0.3 q=38.4 size=       0KiB time=00:00:01.29 bitrate=   0.3kbits/s speed=0.0106x elapsed=0:02:01.84    \nframe=   33 fps=0.3 q=38.4 size=       0KiB time=00:00:01.29 bitrate=   0.3kbits/s speed=0.0106x elapsed=0:02:02.36    \nframe=   34 fps=0.3 q=40.6 size=       0KiB time=00:00:01.33 bitrate=   0.3kbits/s speed=0.0109x elapsed=0:02:02.88    \nframe=   34 fps=0.3 q=40.6 size=       0KiB time=00:00:01.33 bitrate=   0.3kbits/s speed=0.0108x elapsed=0:02:03.43    \nframe=   34 fps=0.3 q=40.6 size=       0KiB time=00:00:01.33 bitrate=   0.3kbits/s speed=0.0108x elapsed=0:02:03.97    \nframe=   34 fps=0.3 q=40.6 size=       0KiB time=00:00:01.33 bitrate=   0.3kbits/s speed=0.0107x elapsed=0:02:04.49    \nframe=   34 fps=0.3 q=40.6 size=       0KiB time=00:00:01.33 bitrate=   0.3kbits/s speed=0.0107x elapsed=0:02:05.00    \nframe=   34 fps=0.3 q=40.6 size=       0KiB time=00:00:01.33 bitrate=   0.3kbits/s speed=0.0106x elapsed=0:02:05.53    \nframe=   34 fps=0.3 q=40.6 size=       0KiB time=00:00:01.33 bitrate=   0.3kbits/s speed=0.0106x elapsed=0:02:06.08    \nframe=   34 fps=0.3 q=40.6 size=       0KiB time=00:00:01.33 bitrate=   0.3kbits/s speed=0.0105x elapsed=0:02:06.59    \nframe=   35 fps=0.3 q=43.8 size=       0KiB time=00:00:01.37 bitrate=   0.3kbits/s speed=0.0108x elapsed=0:02:07.11    \nframe=   35 fps=0.3 q=43.8 size=       0KiB time=00:00:01.37 bitrate=   0.3kbits/s speed=0.0108x elapsed=0:02:07.69    \nframe=   35 fps=0.3 q=43.8 size=       0KiB time=00:00:01.37 bitrate=   0.3kbits/s speed=0.0107x elapsed=0:02:08.31    \nframe=   36 fps=0.3 q=43.3 size=       0KiB time=00:00:01.41 bitrate=   0.2kbits/s speed=0.011x elapsed=0:02:08.87    \nframe=   36 fps=0.3 q=43.3 size=       0KiB time=00:00:01.41 bitrate=   0.2kbits/s speed=0.0109x elapsed=0:02:09.44    \nframe=   36 fps=0.3 q=43.3 size=       0KiB time=00:00:01.41 bitrate=   0.2kbits/s speed=0.0109x elapsed=0:02:09.95    \nframe=   36 fps=0.3 q=43.3 size=       0KiB time=00:00:01.41 bitrate=   0.2kbits/s speed=0.0109x elapsed=0:02:10.47    \nframe=   36 fps=0.3 q=43.3 size=       0KiB time=00:00:01.41 bitrate=   0.2kbits/s speed=0.0108x elapsed=0:02:10.98    \nframe=   36 fps=0.3 q=43.3 size=       0KiB time=00:00:01.41 bitrate=   0.2kbits/s speed=0.0108x elapsed=0:02:11.50    \nframe=   37 fps=0.3 q=38.7 size=       0KiB time=00:00:01.45 bitrate=   0.2kbits/s speed=0.011x elapsed=0:02:12.02    \nframe=   37 fps=0.3 q=38.7 size=       0KiB time=00:00:01.45 bitrate=   0.2kbits/s speed=0.011x elapsed=0:02:12.53    \nframe=   37 fps=0.3 q=38.7 size=       0KiB time=00:00:01.45 bitrate=   0.2kbits/s speed=0.011x elapsed=0:02:13.05    \nframe=   37 fps=0.3 q=38.7 size=       0KiB time=00:00:01.45 bitrate=   0.2kbits/s speed=0.0109x elapsed=0:02:13.56    \nframe=   37 fps=0.3 q=38.7 size=       0KiB time=00:00:01.45 bitrate=   0.2kbits/s speed=0.0109x elapsed=0:02:14.08    \nframe=   37 fps=0.3 q=38.7 size=       0KiB time=00:00:01.45 bitrate=   0.2kbits/s speed=0.0108x elapsed=0:02:14.60    \nframe=   38 fps=0.3 q=40.6 size=       0KiB time=00:00:01.50 bitrate=   0.2kbits/s speed=0.0111x elapsed=0:02:15.13    \nframe=   38 fps=0.3 q=40.6 size=       0KiB time=00:00:01.50 bitrate=   0.2kbits/s speed=0.0111x elapsed=0:02:15.64    \nframe=   38 fps=0.3 q=40.6 size=       0KiB time=00:00:01.50 bitrate=   0.2kbits/s speed=0.011x elapsed=0:02:16.15    \nframe=   38 fps=0.3 q=40.6 size=       0KiB time=00:00:01.50 bitrate=   0.2kbits/s speed=0.011x elapsed=0:02:16.67    \nframe=   38 fps=0.3 q=40.6 size=       0KiB time=00:00:01.50 bitrate=   0.2kbits/s speed=0.0109x elapsed=0:02:17.18    \nframe=   38 fps=0.3 q=40.6 size=       0KiB time=00:00:01.50 bitrate=   0.2kbits/s speed=0.0109x elapsed=0:02:17.71    \nframe=   38 fps=0.3 q=40.6 size=       0KiB time=00:00:01.50 bitrate=   0.2kbits/s speed=0.0109x elapsed=0:02:18.23    \nframe=   38 fps=0.3 q=40.6 size=       0KiB time=00:00:01.50 bitrate=   0.2kbits/s speed=0.0108x elapsed=0:02:18.73    \nframe=   38 fps=0.3 q=40.6 size=       0KiB time=00:00:01.50 bitrate=   0.2kbits/s speed=0.0108x elapsed=0:02:19.25    \nframe=   38 fps=0.3 q=40.6 size=       0KiB time=00:00:01.50 bitrate=   0.2kbits/s speed=0.0107x elapsed=0:02:19.77    \nframe=   38 fps=0.3 q=40.6 size=       0KiB time=00:00:01.50 bitrate=   0.2kbits/s speed=0.0107x elapsed=0:02:20.28    \nframe=   38 fps=0.3 q=40.6 size=       0KiB time=00:00:01.50 bitrate=   0.2kbits/s speed=0.0107x elapsed=0:02:20.80    \nframe=   39 fps=0.3 q=43.4 size=       0KiB time=00:00:01.54 bitrate=   0.2kbits/s speed=0.0109x elapsed=0:02:21.32    \nframe=   39 fps=0.3 q=43.4 size=       0KiB time=00:00:01.54 bitrate=   0.2kbits/s speed=0.0109x elapsed=0:02:21.83    \nframe=   39 fps=0.3 q=43.4 size=       0KiB time=00:00:01.54 bitrate=   0.2kbits/s speed=0.0108x elapsed=0:02:22.34    \nframe=   39 fps=0.3 q=43.4 size=       0KiB time=00:00:01.54 bitrate=   0.2kbits/s speed=0.0108x elapsed=0:02:22.86    \nframe=   39 fps=0.3 q=43.4 size=       0KiB time=00:00:01.54 bitrate=   0.2kbits/s speed=0.0108x elapsed=0:02:23.38    \nframe=   39 fps=0.3 q=43.4 size=       0KiB time=00:00:01.54 bitrate=   0.2kbits/s speed=0.0107x elapsed=0:02:23.89    \nframe=   39 fps=0.3 q=43.4 size=       0KiB time=00:00:01.54 bitrate=   0.2kbits/s speed=0.0107x elapsed=0:02:24.40    \nframe=   39 fps=0.3 q=43.4 size=       0KiB time=00:00:01.54 bitrate=   0.2kbits/s speed=0.0106x elapsed=0:02:24.92    \nframe=   40 fps=0.3 q=43.2 size=       0KiB time=00:00:01.58 bitrate=   0.2kbits/s speed=0.0109x elapsed=0:02:25.44    \nframe=   40 fps=0.3 q=43.2 size=       0KiB time=00:00:01.58 bitrate=   0.2kbits/s speed=0.0108x elapsed=0:02:25.96    \nframe=   40 fps=0.3 q=43.2 size=       0KiB time=00:00:01.58 bitrate=   0.2kbits/s speed=0.0108x elapsed=0:02:26.47    \nframe=   40 fps=0.3 q=43.2 size=       0KiB time=00:00:01.58 bitrate=   0.2kbits/s speed=0.0108x elapsed=0:02:26.98    \nframe=   41 fps=0.3 q=38.6 size=       0KiB time=00:00:01.62 bitrate=   0.2kbits/s speed=0.011x elapsed=0:02:27.50    \nframe=   41 fps=0.3 q=38.6 size=       0KiB time=00:00:01.62 bitrate=   0.2kbits/s speed=0.011x elapsed=0:02:28.02    \nframe=   41 fps=0.3 q=38.6 size=       0KiB time=00:00:01.62 bitrate=   0.2kbits/s speed=0.0109x elapsed=0:02:28.54    \nframe=   41 fps=0.3 q=38.6 size=       0KiB time=00:00:01.62 bitrate=   0.2kbits/s speed=0.0109x elapsed=0:02:29.06    \nframe=   42 fps=0.3 q=40.5 size=       0KiB time=00:00:01.66 bitrate=   0.2kbits/s speed=0.0111x elapsed=0:02:29.58    \nframe=   42 fps=0.3 q=40.5 size=       0KiB time=00:00:01.66 bitrate=   0.2kbits/s speed=0.0111x elapsed=0:02:30.10    \nframe=   42 fps=0.3 q=40.5 size=       0KiB time=00:00:01.66 bitrate=   0.2kbits/s speed=0.0111x elapsed=0:02:30.62    \nframe=   42 fps=0.3 q=40.5 size=       0KiB time=00:00:01.66 bitrate=   0.2kbits/s speed=0.011x elapsed=0:02:31.13    \nframe=   42 fps=0.3 q=40.5 size=       0KiB time=00:00:01.66 bitrate=   0.2kbits/s speed=0.011x elapsed=0:02:31.64    \nframe=   42 fps=0.3 q=40.5 size=       0KiB time=00:00:01.66 bitrate=   0.2kbits/s speed=0.011x elapsed=0:02:32.17    \nframe=   42 fps=0.3 q=40.5 size=       0KiB time=00:00:01.66 bitrate=   0.2kbits/s speed=0.0109x elapsed=0:02:32.67    \nframe=   42 fps=0.3 q=40.5 size=       0KiB time=00:00:01.66 bitrate=   0.2kbits/s speed=0.0109x elapsed=0:02:33.19    \nframe=   42 fps=0.3 q=40.5 size=       0KiB time=00:00:01.66 bitrate=   0.2kbits/s speed=0.0108x elapsed=0:02:33.71    \nframe=   42 fps=0.3 q=40.5 size=       0KiB time=00:00:01.66 bitrate=   0.2kbits/s speed=0.0108x elapsed=0:02:34.21    \nframe=   43 fps=0.3 q=43.7 size=       0KiB time=00:00:01.70 bitrate=   0.2kbits/s speed=0.011x elapsed=0:02:34.74    \nframe=   43 fps=0.3 q=43.7 size=       0KiB time=00:00:01.70 bitrate=   0.2kbits/s speed=0.011x elapsed=0:02:35.26    \nframe=   43 fps=0.3 q=43.7 size=       0KiB time=00:00:01.70 bitrate=   0.2kbits/s speed=0.011x elapsed=0:02:35.76    \nframe=   43 fps=0.3 q=43.7 size=       0KiB time=00:00:01.70 bitrate=   0.2kbits/s speed=0.0109x elapsed=0:02:36.28    \nframe=   43 fps=0.3 q=43.7 size=       0KiB time=00:00:01.70 bitrate=   0.2kbits/s speed=0.0109x elapsed=0:02:36.79    \nframe=   43 fps=0.3 q=43.7 size=       0KiB time=00:00:01.70 bitrate=   0.2kbits/s speed=0.0109x elapsed=0:02:37.31    \nframe=   43 fps=0.3 q=43.7 size=       0KiB time=00:00:01.70 bitrate=   0.2kbits/s speed=0.0108x elapsed=0:02:37.83    \nframe=   44 fps=0.3 q=43.5 size=       0KiB time=00:00:01.75 bitrate=   0.2kbits/s speed=0.0111x elapsed=0:02:38.34    \nframe=   45 fps=0.3 q=38.9 size=       0KiB time=00:00:01.79 bitrate=   0.2kbits/s speed=0.0113x elapsed=0:02:38.85    \nframe=   45 fps=0.3 q=38.9 size=       0KiB time=00:00:01.79 bitrate=   0.2kbits/s speed=0.0112x elapsed=0:02:39.38    \nframe=   45 fps=0.3 q=38.9 size=       0KiB time=00:00:01.79 bitrate=   0.2kbits/s speed=0.0112x elapsed=0:02:39.89    \nframe=   45 fps=0.3 q=38.9 size=       0KiB time=00:00:01.79 bitrate=   0.2kbits/s speed=0.0112x elapsed=0:02:40.40    \nframe=   46 fps=0.3 q=40.7 size=       0KiB time=00:00:01.83 bitrate=   0.2kbits/s speed=0.0114x elapsed=0:02:40.92    \nframe=   46 fps=0.3 q=40.7 size=       0KiB time=00:00:01.83 bitrate=   0.2kbits/s speed=0.0114x elapsed=0:02:41.44    \nframe=   46 fps=0.3 q=40.7 size=       0KiB time=00:00:01.83 bitrate=   0.2kbits/s speed=0.0113x elapsed=0:02:41.95    \nframe=   46 fps=0.3 q=40.7 size=       0KiB time=00:00:01.83 bitrate=   0.2kbits/s speed=0.0113x elapsed=0:02:42.46    \nframe=   46 fps=0.3 q=40.7 size=       0KiB time=00:00:01.83 bitrate=   0.2kbits/s speed=0.0112x elapsed=0:02:42.99    \nframe=   46 fps=0.3 q=40.7 size=       0KiB time=00:00:01.83 bitrate=   0.2kbits/s speed=0.0112x elapsed=0:02:43.55    \nframe=   46 fps=0.3 q=40.7 size=       0KiB time=00:00:01.83 bitrate=   0.2kbits/s speed=0.0112x elapsed=0:02:44.06    \nframe=   46 fps=0.3 q=40.7 size=       0KiB time=00:00:01.83 bitrate=   0.2kbits/s speed=0.0111x elapsed=0:02:44.59    \nframe=   46 fps=0.3 q=40.7 size=       0KiB time=00:00:01.83 bitrate=   0.2kbits/s speed=0.0111x elapsed=0:02:45.09    \nframe=   46 fps=0.3 q=40.7 size=       0KiB time=00:00:01.83 bitrate=   0.2kbits/s speed=0.0111x elapsed=0:02:45.61    \nframe=   47 fps=0.3 q=43.4 size=       0KiB time=00:00:01.87 bitrate=   0.2kbits/s speed=0.0113x elapsed=0:02:46.12    \nframe=   47 fps=0.3 q=43.4 size=       0KiB time=00:00:01.87 bitrate=   0.2kbits/s speed=0.0113x elapsed=0:02:46.65    \nframe=   47 fps=0.3 q=43.4 size=       0KiB time=00:00:01.87 bitrate=   0.2kbits/s speed=0.0112x elapsed=0:02:47.18    \nframe=   47 fps=0.3 q=43.4 size=       0KiB time=00:00:01.87 bitrate=   0.2kbits/s speed=0.0112x elapsed=0:02:47.71    \nframe=   47 fps=0.3 q=43.4 size=       0KiB time=00:00:01.87 bitrate=   0.2kbits/s speed=0.0111x elapsed=0:02:48.22    \nframe=   48 fps=0.3 q=43.0 size=       0KiB time=00:00:01.91 bitrate=   0.2kbits/s speed=0.0114x elapsed=0:02:48.73    \nframe=   49 fps=0.3 q=38.6 size=       0KiB time=00:00:01.95 bitrate=   0.2kbits/s speed=0.0116x elapsed=0:02:49.25    \nframe=   49 fps=0.3 q=38.6 size=       0KiB time=00:00:01.95 bitrate=   0.2kbits/s speed=0.0115x elapsed=0:02:49.76    \nframe=   50 fps=0.3 q=41.1 size=       0KiB time=00:00:02.00 bitrate=   0.2kbits/s speed=0.0117x elapsed=0:02:50.29    \nframe=   50 fps=0.3 q=41.1 size=       0KiB time=00:00:02.00 bitrate=   0.2kbits/s speed=0.0117x elapsed=0:02:50.80    \nframe=   50 fps=0.3 q=41.1 size=       0KiB time=00:00:02.00 bitrate=   0.2kbits/s speed=0.0117x elapsed=0:02:51.31    \nframe=   50 fps=0.3 q=41.1 size=       0KiB time=00:00:02.00 bitrate=   0.2kbits/s speed=0.0116x elapsed=0:02:51.82    \nframe=   50 fps=0.3 q=41.1 size=       0KiB time=00:00:02.00 bitrate=   0.2kbits/s speed=0.0116x elapsed=0:02:52.35    \nframe=   50 fps=0.3 q=41.1 size=       0KiB time=00:00:02.00 bitrate=   0.2kbits/s speed=0.0116x elapsed=0:02:52.86    \nframe=   50 fps=0.3 q=41.1 size=       0KiB time=00:00:02.00 bitrate=   0.2kbits/s speed=0.0115x elapsed=0:02:53.37    \nframe=   50 fps=0.3 q=41.1 size=       0KiB time=00:00:02.00 bitrate=   0.2kbits/s speed=0.0115x elapsed=0:02:53.89    \nframe=   51 fps=0.3 q=43.4 size=       0KiB time=00:00:02.04 bitrate=   0.2kbits/s speed=0.0117x elapsed=0:02:54.42    \nframe=   51 fps=0.3 q=43.4 size=       0KiB time=00:00:02.04 bitrate=   0.2kbits/s speed=0.0117x elapsed=0:02:54.92    \nframe=   51 fps=0.3 q=43.4 size=       0KiB time=00:00:02.04 bitrate=   0.2kbits/s speed=0.0116x elapsed=0:02:55.44    \nframe=   52 fps=0.3 q=43.6 size=       0KiB time=00:00:02.08 bitrate=   0.2kbits/s speed=0.0118x elapsed=0:02:55.96    \nframe=   53 fps=0.3 q=38.8 size=       0KiB time=00:00:02.12 bitrate=   0.2kbits/s speed=0.012x elapsed=0:02:56.47    \nframe=   53 fps=0.3 q=38.8 size=       0KiB time=00:00:02.12 bitrate=   0.2kbits/s speed=0.012x elapsed=0:02:56.98    \nframe=   54 fps=0.3 q=40.7 size=     256KiB time=00:00:02.16 bitrate= 968.1kbits/s speed=0.0122x elapsed=0:02:57.50    \nframe=   54 fps=0.3 q=40.7 size=     256KiB time=00:00:02.16 bitrate= 968.1kbits/s speed=0.0122x elapsed=0:02:58.02    \nframe=   54 fps=0.3 q=40.7 size=     256KiB time=00:00:02.16 bitrate= 968.1kbits/s speed=0.0121x elapsed=0:02:58.53    \nframe=   54 fps=0.3 q=40.7 size=     256KiB time=00:00:02.16 bitrate= 968.1kbits/s speed=0.0121x elapsed=0:02:59.05    \nframe=   55 fps=0.3 q=43.5 size=     256KiB time=00:00:02.20 bitrate= 949.8kbits/s speed=0.0123x elapsed=0:02:59.57    \nframe=   55 fps=0.3 q=43.5 size=     256KiB time=00:00:02.20 bitrate= 949.8kbits/s speed=0.0123x elapsed=0:03:00.08    \nframe=   56 fps=0.3 q=43.2 size=     256KiB time=00:00:02.25 bitrate= 932.2kbits/s speed=0.0125x elapsed=0:03:00.59    \nframe=   56 fps=0.3 q=43.2 size=     256KiB time=00:00:02.25 bitrate= 932.2kbits/s speed=0.0124x elapsed=0:03:01.10    \nframe=   57 fps=0.3 q=38.9 size=     256KiB time=00:00:02.29 bitrate= 915.3kbits/s speed=0.0126x elapsed=0:03:01.62    \nframe=   58 fps=0.3 q=40.8 size=     256KiB time=00:00:02.33 bitrate= 898.9kbits/s speed=0.0128x elapsed=0:03:02.14    \nframe=   58 fps=0.3 q=40.8 size=     256KiB time=00:00:02.33 bitrate= 898.9kbits/s speed=0.0128x elapsed=0:03:02.66    \nframe=   58 fps=0.3 q=40.8 size=     256KiB time=00:00:02.33 bitrate= 898.9kbits/s speed=0.0127x elapsed=0:03:03.18    \nframe=   59 fps=0.3 q=43.8 size=     256KiB time=00:00:02.37 bitrate= 883.2kbits/s speed=0.0129x elapsed=0:03:03.69    \nframe=   59 fps=0.3 q=43.8 size=     256KiB time=00:00:02.37 bitrate= 883.2kbits/s speed=0.0129x elapsed=0:03:04.20    \nframe=   59 fps=0.3 q=43.8 size=     256KiB time=00:00:02.37 bitrate= 883.2kbits/s speed=0.0129x elapsed=0:03:04.71    \nframe=   59 fps=0.3 q=43.8 size=     256KiB time=00:00:02.37 bitrate= 883.2kbits/s speed=0.0128x elapsed=0:03:05.23    \nframe=   59 fps=0.3 q=43.8 size=     256KiB time=00:00:02.37 bitrate= 883.2kbits/s speed=0.0128x elapsed=0:03:05.75    \nframe=   59 fps=0.3 q=43.8 size=     256KiB time=00:00:02.37 bitrate= 883.2kbits/s speed=0.0127x elapsed=0:03:06.28    \nframe=   60 fps=0.3 q=43.3 size=     256KiB time=00:00:02.41 bitrate= 867.9kbits/s speed=0.0129x elapsed=0:03:06.79    \nframe=   60 fps=0.3 q=43.3 size=     256KiB time=00:00:02.41 bitrate= 867.9kbits/s speed=0.0129x elapsed=0:03:07.32    \nframe=   60 fps=0.3 q=43.3 size=     256KiB time=00:00:02.41 bitrate= 867.9kbits/s speed=0.0129x elapsed=0:03:07.83    \nframe=   60 fps=0.3 q=43.3 size=     256KiB time=00:00:02.41 bitrate= 867.9kbits/s speed=0.0128x elapsed=0:03:08.34    \nframe=   61 fps=0.3 q=38.6 size=     256KiB time=00:00:02.45 bitrate= 853.2kbits/s speed=0.013x elapsed=0:03:08.86    \nframe=   61 fps=0.3 q=38.6 size=     256KiB time=00:00:02.45 bitrate= 853.2kbits/s speed=0.013x elapsed=0:03:09.37    \nframe=   61 fps=0.3 q=38.6 size=     256KiB time=00:00:02.45 bitrate= 853.2kbits/s speed=0.0129x elapsed=0:03:09.89    \nframe=   61 fps=0.3 q=38.6 size=     256KiB time=00:00:02.45 bitrate= 853.2kbits/s speed=0.0129x elapsed=0:03:10.41    \nframe=   61 fps=0.3 q=38.6 size=     256KiB time=00:00:02.45 bitrate= 853.2kbits/s speed=0.0129x elapsed=0:03:10.92    \nframe=   61 fps=0.3 q=38.6 size=     256KiB time=00:00:02.45 bitrate= 853.2kbits/s speed=0.0128x elapsed=0:03:11.44    \nframe=   61 fps=0.3 q=38.6 size=     256KiB time=00:00:02.45 bitrate= 853.2kbits/s speed=0.0128x elapsed=0:03:11.96    \nframe=   61 fps=0.3 q=38.6 size=     256KiB time=00:00:02.45 bitrate= 853.2kbits/s speed=0.0128x elapsed=0:03:12.48    \nframe=   62 fps=0.3 q=40.8 size=     256KiB time=00:00:02.50 bitrate= 839.0kbits/s speed=0.013x elapsed=0:03:13.00    \nframe=   62 fps=0.3 q=40.8 size=     256KiB time=00:00:02.50 bitrate= 839.0kbits/s speed=0.0129x elapsed=0:03:13.51    \nframe=   62 fps=0.3 q=40.8 size=     256KiB time=00:00:02.50 bitrate= 839.0kbits/s speed=0.0129x elapsed=0:03:14.03    \nframe=   62 fps=0.3 q=40.8 size=     256KiB time=00:00:02.50 bitrate= 839.0kbits/s speed=0.0128x elapsed=0:03:14.55    \nframe=   62 fps=0.3 q=40.8 size=     256KiB time=00:00:02.50 bitrate= 839.0kbits/s speed=0.0128x elapsed=0:03:15.07    \nframe=   62 fps=0.3 q=40.8 size=     256KiB time=00:00:02.50 bitrate= 839.0kbits/s speed=0.0128x elapsed=0:03:15.57    \nframe=   62 fps=0.3 q=40.8 size=     256KiB time=00:00:02.50 bitrate= 839.0kbits/s speed=0.0127x elapsed=0:03:16.09    \nframe=   62 fps=0.3 q=40.8 size=     256KiB time=00:00:02.50 bitrate= 839.0kbits/s speed=0.0127x elapsed=0:03:16.61    \nframe=   62 fps=0.3 q=40.8 size=     256KiB time=00:00:02.50 bitrate= 839.0kbits/s speed=0.0127x elapsed=0:03:17.13    \nframe=   62 fps=0.3 q=40.8 size=     256KiB time=00:00:02.50 bitrate= 839.0kbits/s speed=0.0126x elapsed=0:03:17.64    \nframe=   63 fps=0.3 q=43.7 size=     256KiB time=00:00:02.54 bitrate= 825.2kbits/s speed=0.0128x elapsed=0:03:18.16    \nframe=   63 fps=0.3 q=43.7 size=     256KiB time=00:00:02.54 bitrate= 825.2kbits/s speed=0.0128x elapsed=0:03:18.68    \nframe=   63 fps=0.3 q=43.7 size=     256KiB time=00:00:02.54 bitrate= 825.2kbits/s speed=0.0128x elapsed=0:03:19.19    \nframe=   63 fps=0.3 q=43.7 size=     256KiB time=00:00:02.54 bitrate= 825.2kbits/s speed=0.0127x elapsed=0:03:19.71    \nframe=   63 fps=0.3 q=43.7 size=     256KiB time=00:00:02.54 bitrate= 825.2kbits/s speed=0.0127x elapsed=0:03:20.22    \nframe=   64 fps=0.3 q=44.0 size=     256KiB time=00:00:02.58 bitrate= 811.9kbits/s speed=0.0129x elapsed=0:03:20.73    \nframe=   64 fps=0.3 q=44.0 size=     256KiB time=00:00:02.58 bitrate= 811.9kbits/s speed=0.0128x elapsed=0:03:21.25    \nframe=   64 fps=0.3 q=44.0 size=     256KiB time=00:00:02.58 bitrate= 811.9kbits/s speed=0.0128x elapsed=0:03:21.77    \nframe=   64 fps=0.3 q=44.0 size=     256KiB time=00:00:02.58 bitrate= 811.9kbits/s speed=0.0128x elapsed=0:03:22.28    \nframe=   65 fps=0.3 q=38.8 size=     256KiB time=00:00:02.62 bitrate= 799.0kbits/s speed=0.0129x elapsed=0:03:22.79    \nframe=   65 fps=0.3 q=38.8 size=     256KiB time=00:00:02.62 bitrate= 799.0kbits/s speed=0.0129x elapsed=0:03:23.32    \nframe=   65 fps=0.3 q=38.8 size=     256KiB time=00:00:02.62 bitrate= 799.0kbits/s speed=0.0129x elapsed=0:03:23.83    \nframe=   66 fps=0.3 q=40.9 size=     256KiB time=00:00:02.66 bitrate= 786.6kbits/s speed=0.013x elapsed=0:03:24.35    \nframe=   66 fps=0.3 q=40.9 size=     256KiB time=00:00:02.66 bitrate= 786.6kbits/s speed=0.013x elapsed=0:03:24.86    \nframe=   66 fps=0.3 q=40.9 size=     256KiB time=00:00:02.66 bitrate= 786.6kbits/s speed=0.013x elapsed=0:03:25.38    \nframe=   66 fps=0.3 q=40.9 size=     256KiB time=00:00:02.66 bitrate= 786.6kbits/s speed=0.013x elapsed=0:03:25.89    \nframe=   66 fps=0.3 q=40.9 size=     256KiB time=00:00:02.66 bitrate= 786.6kbits/s speed=0.0129x elapsed=0:03:26.40    \nframe=   67 fps=0.3 q=43.4 size=     256KiB time=00:00:02.70 bitrate= 774.5kbits/s speed=0.0131x elapsed=0:03:26.92    \nframe=   67 fps=0.3 q=43.4 size=     256KiB time=00:00:02.70 bitrate= 774.5kbits/s speed=0.0131x elapsed=0:03:27.44    \nframe=   67 fps=0.3 q=43.4 size=     256KiB time=00:00:02.70 bitrate= 774.5kbits/s speed=0.013x elapsed=0:03:27.95    \nframe=   67 fps=0.3 q=43.4 size=     256KiB time=00:00:02.70 bitrate= 774.5kbits/s speed=0.013x elapsed=0:03:28.47    \nframe=   67 fps=0.3 q=43.4 size=     256KiB time=00:00:02.70 bitrate= 774.5kbits/s speed=0.013x elapsed=0:03:28.99    \nframe=   68 fps=0.3 q=43.1 size=     256KiB time=00:00:02.75 bitrate= 762.7kbits/s speed=0.0131x elapsed=0:03:29.50    \nframe=   68 fps=0.3 q=43.1 size=     256KiB time=00:00:02.75 bitrate= 762.7kbits/s speed=0.0131x elapsed=0:03:30.02    \nframe=   68 fps=0.3 q=43.1 size=     256KiB time=00:00:02.75 bitrate= 762.7kbits/s speed=0.0131x elapsed=0:03:30.53    \nframe=   68 fps=0.3 q=43.1 size=     256KiB time=00:00:02.75 bitrate= 762.7kbits/s speed=0.013x elapsed=0:03:31.05    \nframe=   68 fps=0.3 q=43.1 size=     256KiB time=00:00:02.75 bitrate= 762.7kbits/s speed=0.013x elapsed=0:03:31.56    \nframe=   68 fps=0.3 q=43.1 size=     256KiB time=00:00:02.75 bitrate= 762.7kbits/s speed=0.013x elapsed=0:03:32.08    \nframe=   68 fps=0.3 q=43.1 size=     256KiB time=00:00:02.75 bitrate= 762.7kbits/s speed=0.0129x elapsed=0:03:32.61    \nframe=   69 fps=0.3 q=38.5 size=     256KiB time=00:00:02.79 bitrate= 751.3kbits/s speed=0.0131x elapsed=0:03:33.13    \nframe=   69 fps=0.3 q=38.5 size=     256KiB time=00:00:02.79 bitrate= 751.3kbits/s speed=0.0131x elapsed=0:03:33.64    \nframe=   69 fps=0.3 q=38.5 size=     256KiB time=00:00:02.79 bitrate= 751.3kbits/s speed=0.013x elapsed=0:03:34.16    \nframe=   69 fps=0.3 q=38.5 size=     256KiB time=00:00:02.79 bitrate= 751.3kbits/s speed=0.013x elapsed=0:03:34.67    \nframe=   69 fps=0.3 q=38.5 size=     256KiB time=00:00:02.79 bitrate= 751.3kbits/s speed=0.013x elapsed=0:03:35.19    \nframe=   69 fps=0.3 q=38.5 size=     256KiB time=00:00:02.79 bitrate= 751.3kbits/s speed=0.0129x elapsed=0:03:35.70    \nframe=   69 fps=0.3 q=38.5 size=     256KiB time=00:00:02.79 bitrate= 751.3kbits/s speed=0.0129x elapsed=0:03:36.22    \nframe=   69 fps=0.3 q=38.5 size=     256KiB time=00:00:02.79 bitrate= 751.3kbits/s speed=0.0129x elapsed=0:03:36.74    \nframe=   70 fps=0.3 q=40.9 size=     256KiB time=00:00:02.83 bitrate= 740.3kbits/s speed=0.013x elapsed=0:03:37.27    \nframe=   70 fps=0.3 q=40.9 size=     256KiB time=00:00:02.83 bitrate= 740.3kbits/s speed=0.013x elapsed=0:03:37.78    \nframe=   70 fps=0.3 q=40.9 size=     256KiB time=00:00:02.83 bitrate= 740.3kbits/s speed=0.013x elapsed=0:03:38.30    \nframe=   70 fps=0.3 q=40.9 size=     256KiB time=00:00:02.83 bitrate= 740.3kbits/s speed=0.0129x elapsed=0:03:38.83    \nframe=   70 fps=0.3 q=40.9 size=     256KiB time=00:00:02.83 bitrate= 740.3kbits/s speed=0.0129x elapsed=0:03:39.34    \nframe=   70 fps=0.3 q=40.9 size=     256KiB time=00:00:02.83 bitrate= 740.3kbits/s speed=0.0129x elapsed=0:03:39.86    \nframe=   70 fps=0.3 q=40.9 size=     256KiB time=00:00:02.83 bitrate= 740.3kbits/s speed=0.0129x elapsed=0:03:40.38    \nframe=   70 fps=0.3 q=40.9 size=     256KiB time=00:00:02.83 bitrate= 740.3kbits/s speed=0.0128x elapsed=0:03:40.89    \nframe=   70 fps=0.3 q=40.9 size=     256KiB time=00:00:02.83 bitrate= 740.3kbits/s speed=0.0128x elapsed=0:03:41.40    \nframe=   71 fps=0.3 q=43.4 size=     256KiB time=00:00:02.87 bitrate= 729.6kbits/s speed=0.013x elapsed=0:03:41.92    \nframe=   71 fps=0.3 q=43.4 size=     256KiB time=00:00:02.87 bitrate= 729.6kbits/s speed=0.0129x elapsed=0:03:42.43    \nframe=   71 fps=0.3 q=43.4 size=     256KiB time=00:00:02.87 bitrate= 729.6kbits/s speed=0.0129x elapsed=0:03:42.96    \nframe=   71 fps=0.3 q=43.4 size=     256KiB time=00:00:02.87 bitrate= 729.6kbits/s speed=0.0129x elapsed=0:03:43.48    \nframe=   71 fps=0.3 q=43.4 size=     256KiB time=00:00:02.87 bitrate= 729.6kbits/s speed=0.0128x elapsed=0:03:44.00    \nframe=   71 fps=0.3 q=43.4 size=     256KiB time=00:00:02.87 bitrate= 729.6kbits/s speed=0.0128x elapsed=0:03:44.51    \nframe=   72 fps=0.3 q=43.2 size=     256KiB time=00:00:02.91 bitrate= 719.1kbits/s speed=0.013x elapsed=0:03:45.03    \nframe=   73 fps=0.3 q=38.7 size=     256KiB time=00:00:02.95 bitrate= 709.0kbits/s speed=0.0131x elapsed=0:03:45.55    \nframe=   73 fps=0.3 q=38.7 size=     256KiB time=00:00:02.95 bitrate= 709.0kbits/s speed=0.0131x elapsed=0:03:46.06    \nframe=   74 fps=0.3 q=40.7 size=     256KiB time=00:00:03.00 bitrate= 699.2kbits/s speed=0.0132x elapsed=0:03:46.58    \nframe=   74 fps=0.3 q=40.7 size=     256KiB time=00:00:03.00 bitrate= 699.2kbits/s speed=0.0132x elapsed=0:03:47.09    \nframe=   74 fps=0.3 q=40.7 size=     256KiB time=00:00:03.00 bitrate= 699.2kbits/s speed=0.0132x elapsed=0:03:47.61    \nframe=   74 fps=0.3 q=40.7 size=     256KiB time=00:00:03.00 bitrate= 699.2kbits/s speed=0.0132x elapsed=0:03:48.12    \nframe=   74 fps=0.3 q=40.7 size=     256KiB time=00:00:03.00 bitrate= 699.2kbits/s speed=0.0131x elapsed=0:03:48.64    \nframe=   74 fps=0.3 q=40.7 size=     256KiB time=00:00:03.00 bitrate= 699.2kbits/s speed=0.0131x elapsed=0:03:49.16    \nframe=   74 fps=0.3 q=40.7 size=     256KiB time=00:00:03.00 bitrate= 699.2kbits/s speed=0.0131x elapsed=0:03:49.67    \nframe=   74 fps=0.3 q=40.7 size=     256KiB time=00:00:03.00 bitrate= 699.2kbits/s speed=0.013x elapsed=0:03:50.19    \nframe=   74 fps=0.3 q=40.7 size=     256KiB time=00:00:03.00 bitrate= 699.2kbits/s speed=0.013x elapsed=0:03:50.70    \nframe=   74 fps=0.3 q=40.7 size=     256KiB time=00:00:03.00 bitrate= 699.2kbits/s speed=0.013x elapsed=0:03:51.22    \nframe=   74 fps=0.3 q=40.7 size=     256KiB time=00:00:03.00 bitrate= 699.2kbits/s speed=0.0129x elapsed=0:03:51.74    \nframe=   74 fps=0.3 q=40.7 size=     256KiB time=00:00:03.00 bitrate= 699.2kbits/s speed=0.0129x elapsed=0:03:52.26    \nframe=   75 fps=0.3 q=43.4 size=     256KiB time=00:00:03.04 bitrate= 689.6kbits/s speed=0.0131x elapsed=0:03:52.77    \nframe=   75 fps=0.3 q=43.4 size=     256KiB time=00:00:03.04 bitrate= 689.6kbits/s speed=0.013x elapsed=0:03:53.28    \nframe=   75 fps=0.3 q=43.4 size=     256KiB time=00:00:03.04 bitrate= 689.6kbits/s speed=0.013x elapsed=0:03:53.79    \nframe=   76 fps=0.3 q=43.3 size=     256KiB time=00:00:03.08 bitrate= 680.3kbits/s speed=0.0132x elapsed=0:03:54.31    \nframe=   76 fps=0.3 q=43.3 size=     256KiB time=00:00:03.08 bitrate= 680.3kbits/s speed=0.0131x elapsed=0:03:54.83    \nframe=   77 fps=0.3 q=38.2 size=     256KiB time=00:00:03.12 bitrate= 671.2kbits/s speed=0.0133x elapsed=0:03:55.34    \nframe=   78 fps=0.3 q=40.8 size=     256KiB time=00:00:03.16 bitrate= 662.4kbits/s speed=0.0134x elapsed=0:03:55.86    \nframe=   78 fps=0.3 q=40.8 size=     256KiB time=00:00:03.16 bitrate= 662.4kbits/s speed=0.0134x elapsed=0:03:56.37    \nframe=   78 fps=0.3 q=40.8 size=     256KiB time=00:00:03.16 bitrate= 662.4kbits/s speed=0.0134x elapsed=0:03:56.89    \nframe=   79 fps=0.3 q=43.3 size=     256KiB time=00:00:03.20 bitrate= 653.8kbits/s speed=0.0135x elapsed=0:03:57.40    \nframe=   79 fps=0.3 q=43.3 size=     256KiB time=00:00:03.20 bitrate= 653.8kbits/s speed=0.0135x elapsed=0:03:57.93    \nframe=   79 fps=0.3 q=43.3 size=     256KiB time=00:00:03.20 bitrate= 653.8kbits/s speed=0.0135x elapsed=0:03:58.44    \nframe=   80 fps=0.3 q=43.5 size=     256KiB time=00:00:03.25 bitrate= 645.4kbits/s speed=0.0136x elapsed=0:03:58.95    \nframe=   80 fps=0.3 q=43.5 size=     256KiB time=00:00:03.25 bitrate= 645.4kbits/s speed=0.0136x elapsed=0:03:59.46    \nframe=   81 fps=0.3 q=38.4 size=     256KiB time=00:00:03.29 bitrate= 637.2kbits/s speed=0.0137x elapsed=0:03:59.99    \nframe=   82 fps=0.3 q=40.7 size=     256KiB time=00:00:03.33 bitrate= 629.3kbits/s speed=0.0139x elapsed=0:04:00.50    \nframe=   82 fps=0.3 q=40.7 size=     256KiB time=00:00:03.33 bitrate= 629.3kbits/s speed=0.0138x elapsed=0:04:01.01    \nframe=   82 fps=0.3 q=40.7 size=     256KiB time=00:00:03.33 bitrate= 629.3kbits/s speed=0.0138x elapsed=0:04:01.53    \nframe=   83 fps=0.3 q=43.2 size=     256KiB time=00:00:03.37 bitrate= 621.5kbits/s speed=0.0139x elapsed=0:04:02.05    \nframe=   83 fps=0.3 q=43.2 size=     256KiB time=00:00:03.37 bitrate= 621.5kbits/s speed=0.0139x elapsed=0:04:02.56    \nframe=   83 fps=0.3 q=43.2 size=     256KiB time=00:00:03.37 bitrate= 621.5kbits/s speed=0.0139x elapsed=0:04:03.07    \nframe=   84 fps=0.3 q=43.4 size=     256KiB time=00:00:03.41 bitrate= 613.9kbits/s speed=0.014x elapsed=0:04:03.60    \nframe=   84 fps=0.3 q=43.4 size=     256KiB time=00:00:03.41 bitrate= 613.9kbits/s speed=0.014x elapsed=0:04:04.11    \nframe=   85 fps=0.3 q=38.3 size=     256KiB time=00:00:03.45 bitrate= 606.5kbits/s speed=0.0141x elapsed=0:04:04.63    \nframe=   85 fps=0.3 q=38.3 size=     256KiB time=00:00:03.45 bitrate= 606.5kbits/s speed=0.0141x elapsed=0:04:05.13    \nframe=   86 fps=0.4 q=41.6 size=     256KiB time=00:00:03.50 bitrate= 599.3kbits/s speed=0.0142x elapsed=0:04:05.66    \nframe=   87 fps=0.4 q=43.1 size=     256KiB time=00:00:03.54 bitrate= 592.2kbits/s speed=0.0144x elapsed=0:04:06.17    \nframe=   87 fps=0.4 q=43.1 size=     256KiB time=00:00:03.54 bitrate= 592.2kbits/s speed=0.0144x elapsed=0:04:06.69    \nframe=   87 fps=0.4 q=43.1 size=     256KiB time=00:00:03.54 bitrate= 592.2kbits/s speed=0.0143x elapsed=0:04:07.21    \nframe=   88 fps=0.4 q=43.2 size=     256KiB time=00:00:03.58 bitrate= 585.4kbits/s speed=0.0145x elapsed=0:04:07.71    \nframe=   88 fps=0.4 q=43.2 size=     256KiB time=00:00:03.58 bitrate= 585.4kbits/s speed=0.0144x elapsed=0:04:08.24    \nframe=   88 fps=0.4 q=43.2 size=     256KiB time=00:00:03.58 bitrate= 585.4kbits/s speed=0.0144x elapsed=0:04:08.75    \nframe=   89 fps=0.4 q=42.8 size=     256KiB time=00:00:03.62 bitrate= 578.6kbits/s speed=0.0145x elapsed=0:04:09.26    \nframe=   89 fps=0.4 q=42.8 size=     256KiB time=00:00:03.62 bitrate= 578.6kbits/s speed=0.0145x elapsed=0:04:09.78    \nframe=   90 fps=0.4 q=38.1 size=     256KiB time=00:00:03.66 bitrate= 572.0kbits/s speed=0.0146x elapsed=0:04:10.29    \nframe=   91 fps=0.4 q=39.1 size=     256KiB time=00:00:03.70 bitrate= 565.6kbits/s speed=0.0148x elapsed=0:04:10.82    \nframe=   92 fps=0.4 q=43.6 size=     256KiB time=00:00:03.75 bitrate= 559.3kbits/s speed=0.0149x elapsed=0:04:11.33    \nframe=   92 fps=0.4 q=43.6 size=     256KiB time=00:00:03.75 bitrate= 559.3kbits/s speed=0.0149x elapsed=0:04:11.85    \nframe=   92 fps=0.4 q=43.6 size=     256KiB time=00:00:03.75 bitrate= 559.3kbits/s speed=0.0149x elapsed=0:04:12.37    \nframe=   93 fps=0.4 q=43.8 size=     256KiB time=00:00:03.79 bitrate= 553.2kbits/s speed=0.015x elapsed=0:04:12.88    \nframe=   93 fps=0.4 q=43.8 size=     256KiB time=00:00:03.79 bitrate= 553.2kbits/s speed=0.015x elapsed=0:04:13.39    \nframe=   93 fps=0.4 q=43.8 size=     256KiB time=00:00:03.79 bitrate= 553.2kbits/s speed=0.0149x elapsed=0:04:13.91    \nframe=   94 fps=0.4 q=44.4 size=     256KiB time=00:00:03.83 bitrate= 547.2kbits/s speed=0.0151x elapsed=0:04:14.43    \nframe=   95 fps=0.4 q=38.6 size=     256KiB time=00:00:03.87 bitrate= 541.3kbits/s speed=0.0152x elapsed=0:04:14.93    \nframe=   96 fps=0.4 q=40.8 size=     256KiB time=00:00:03.91 bitrate= 535.5kbits/s speed=0.0153x elapsed=0:04:15.45    \nframe=   96 fps=0.4 q=40.8 size=     256KiB time=00:00:03.91 bitrate= 535.5kbits/s speed=0.0153x elapsed=0:04:15.97    \nframe=   96 fps=0.4 q=40.8 size=     256KiB time=00:00:03.91 bitrate= 535.5kbits/s speed=0.0153x elapsed=0:04:16.49    \nframe=   97 fps=0.4 q=44.3 size=     256KiB time=00:00:03.95 bitrate= 529.9kbits/s speed=0.0154x elapsed=0:04:17.00    \nframe=   97 fps=0.4 q=44.3 size=     256KiB time=00:00:03.95 bitrate= 529.9kbits/s speed=0.0154x elapsed=0:04:17.52    \nframe=   98 fps=0.4 q=43.7 size=     256KiB time=00:00:04.00 bitrate= 524.4kbits/s speed=0.0155x elapsed=0:04:18.03    \nframe=   98 fps=0.4 q=43.7 size=     256KiB time=00:00:04.00 bitrate= 524.4kbits/s speed=0.0155x elapsed=0:04:18.54    \nframe=   98 fps=0.4 q=43.7 size=     256KiB time=00:00:04.00 bitrate= 524.4kbits/s speed=0.0154x elapsed=0:04:19.06    \nframe=   99 fps=0.4 q=38.3 size=     256KiB time=00:00:04.04 bitrate= 519.0kbits/s speed=0.0156x elapsed=0:04:19.58    \nframe=   99 fps=0.4 q=38.3 size=     256KiB time=00:00:04.04 bitrate= 519.0kbits/s speed=0.0155x elapsed=0:04:20.09    \nframe=  100 fps=0.4 q=40.9 size=     256KiB time=00:00:04.08 bitrate= 513.7kbits/s speed=0.0157x elapsed=0:04:20.61    \nframe=  100 fps=0.4 q=40.9 size=     256KiB time=00:00:04.08 bitrate= 513.7kbits/s speed=0.0156x elapsed=0:04:21.13    \nframe=  100 fps=0.4 q=40.9 size=     256KiB time=00:00:04.08 bitrate= 513.7kbits/s speed=0.0156x elapsed=0:04:21.65    \nframe=  100 fps=0.4 q=40.9 size=     256KiB time=00:00:04.08 bitrate= 513.7kbits/s speed=0.0156x elapsed=0:04:22.17    \nframe=  100 fps=0.4 q=40.9 size=     256KiB time=00:00:04.08 bitrate= 513.7kbits/s speed=0.0155x elapsed=0:04:22.69    \nframe=  100 fps=0.4 q=40.9 size=     256KiB time=00:00:04.08 bitrate= 513.7kbits/s speed=0.0155x elapsed=0:04:23.21    \nframe=  100 fps=0.4 q=40.9 size=     256KiB time=00:00:04.08 bitrate= 513.7kbits/s speed=0.0155x elapsed=0:04:23.72    \nframe=  100 fps=0.4 q=40.9 size=     256KiB time=00:00:04.08 bitrate= 513.7kbits/s speed=0.0155x elapsed=0:04:24.23    \nframe=  100 fps=0.4 q=40.9 size=     256KiB time=00:00:04.08 bitrate= 513.7kbits/s speed=0.0154x elapsed=0:04:24.75    \nframe=  101 fps=0.4 q=43.3 size=     256KiB time=00:00:04.12 bitrate= 508.5kbits/s speed=0.0156x elapsed=0:04:25.26    \nframe=  101 fps=0.4 q=43.3 size=     256KiB time=00:00:04.12 bitrate= 508.5kbits/s speed=0.0155x elapsed=0:04:25.78    \nframe=  101 fps=0.4 q=43.3 size=     256KiB time=00:00:04.12 bitrate= 508.5kbits/s speed=0.0155x elapsed=0:04:26.30    \nframe=  101 fps=0.4 q=43.3 size=     256KiB time=00:00:04.12 bitrate= 508.5kbits/s speed=0.0155x elapsed=0:04:26.81    \nframe=  101 fps=0.4 q=43.3 size=     256KiB time=00:00:04.12 bitrate= 508.5kbits/s speed=0.0154x elapsed=0:04:27.33    \nframe=  101 fps=0.4 q=43.3 size=     256KiB time=00:00:04.12 bitrate= 508.5kbits/s speed=0.0154x elapsed=0:04:27.85    \nframe=  101 fps=0.4 q=43.3 size=     256KiB time=00:00:04.12 bitrate= 508.5kbits/s speed=0.0154x elapsed=0:04:28.37    \nframe=  101 fps=0.4 q=43.3 size=     256KiB time=00:00:04.12 bitrate= 508.5kbits/s speed=0.0153x elapsed=0:04:28.89    \nframe=  102 fps=0.4 q=43.2 size=     256KiB time=00:00:04.16 bitrate= 503.4kbits/s speed=0.0155x elapsed=0:04:29.40    \nframe=  102 fps=0.4 q=43.2 size=     256KiB time=00:00:04.16 bitrate= 503.4kbits/s speed=0.0154x elapsed=0:04:29.93    \nframe=  102 fps=0.4 q=43.2 size=     256KiB time=00:00:04.16 bitrate= 503.4kbits/s speed=0.0154x elapsed=0:04:30.44    \nframe=  103 fps=0.4 q=38.1 size=     256KiB time=00:00:04.20 bitrate= 498.4kbits/s speed=0.0155x elapsed=0:04:30.95    \nframe=  103 fps=0.4 q=38.1 size=     256KiB time=00:00:04.20 bitrate= 498.4kbits/s speed=0.0155x elapsed=0:04:31.47    \nframe=  103 fps=0.4 q=38.1 size=     256KiB time=00:00:04.20 bitrate= 498.4kbits/s speed=0.0155x elapsed=0:04:31.98    \nframe=  104 fps=0.4 q=40.6 size=     512KiB time=00:00:04.25 bitrate= 987.0kbits/s speed=0.0156x elapsed=0:04:32.51    \nframe=  104 fps=0.4 q=40.6 size=     512KiB time=00:00:04.25 bitrate= 987.0kbits/s speed=0.0156x elapsed=0:04:33.03    \nframe=  104 fps=0.4 q=40.6 size=     512KiB time=00:00:04.25 bitrate= 987.0kbits/s speed=0.0155x elapsed=0:04:33.55    \nframe=  104 fps=0.4 q=40.6 size=     512KiB time=00:00:04.25 bitrate= 987.0kbits/s speed=0.0155x elapsed=0:04:34.06    \nframe=  104 fps=0.4 q=40.6 size=     512KiB time=00:00:04.25 bitrate= 987.0kbits/s speed=0.0155x elapsed=0:04:34.58    \nframe=  104 fps=0.4 q=40.6 size=     512KiB time=00:00:04.25 bitrate= 987.0kbits/s speed=0.0154x elapsed=0:04:35.10    \nframe=  105 fps=0.4 q=43.3 size=     512KiB time=00:00:04.29 bitrate= 977.4kbits/s speed=0.0156x elapsed=0:04:35.61    \nframe=  105 fps=0.4 q=43.3 size=     512KiB time=00:00:04.29 bitrate= 977.4kbits/s speed=0.0155x elapsed=0:04:36.13    \nframe=  106 fps=0.4 q=43.2 size=     512KiB time=00:00:04.33 bitrate= 968.0kbits/s speed=0.0157x elapsed=0:04:36.65    \nframe=  106 fps=0.4 q=43.2 size=     512KiB time=00:00:04.33 bitrate= 968.0kbits/s speed=0.0156x elapsed=0:04:37.16    \nframe=  106 fps=0.4 q=43.2 size=     512KiB time=00:00:04.33 bitrate= 968.0kbits/s speed=0.0156x elapsed=0:04:37.68    \nframe=  106 fps=0.4 q=43.2 size=     512KiB time=00:00:04.33 bitrate= 968.0kbits/s speed=0.0156x elapsed=0:04:38.20    \nframe=  106 fps=0.4 q=43.2 size=     512KiB time=00:00:04.33 bitrate= 968.0kbits/s speed=0.0155x elapsed=0:04:38.72    \nframe=  106 fps=0.4 q=43.2 size=     512KiB time=00:00:04.33 bitrate= 968.0kbits/s speed=0.0155x elapsed=0:04:39.24    \nframe=  106 fps=0.4 q=43.2 size=     512KiB time=00:00:04.33 bitrate= 968.0kbits/s speed=0.0155x elapsed=0:04:39.76    \nframe=  106 fps=0.4 q=43.2 size=     512KiB time=00:00:04.33 bitrate= 968.0kbits/s speed=0.0155x elapsed=0:04:40.28    \nframe=  106 fps=0.4 q=43.2 size=     512KiB time=00:00:04.33 bitrate= 968.0kbits/s speed=0.0154x elapsed=0:04:40.80    \nframe=  106 fps=0.4 q=43.2 size=     512KiB time=00:00:04.33 bitrate= 968.0kbits/s speed=0.0154x elapsed=0:04:41.31    \nframe=  106 fps=0.4 q=43.2 size=     512KiB time=00:00:04.33 bitrate= 968.0kbits/s speed=0.0154x elapsed=0:04:41.85    \nframe=  106 fps=0.4 q=43.2 size=     512KiB time=00:00:04.33 bitrate= 968.0kbits/s speed=0.0153x elapsed=0:04:42.37    \nframe=  106 fps=0.4 q=43.2 size=     512KiB time=00:00:04.33 bitrate= 968.0kbits/s speed=0.0153x elapsed=0:04:42.89    \nframe=  106 fps=0.4 q=43.2 size=     512KiB time=00:00:04.33 bitrate= 968.0kbits/s speed=0.0153x elapsed=0:04:43.41    \nframe=  106 fps=0.4 q=43.2 size=     512KiB time=00:00:04.33 bitrate= 968.0kbits/s speed=0.0153x elapsed=0:04:43.93    \nframe=  106 fps=0.4 q=43.2 size=     512KiB time=00:00:04.33 bitrate= 968.0kbits/s speed=0.0152x elapsed=0:04:44.47    \nframe=  106 fps=0.4 q=43.2 size=     512KiB time=00:00:04.33 bitrate= 968.0kbits/s speed=0.0152x elapsed=0:04:45.00    \nframe=  106 fps=0.4 q=43.2 size=     512KiB time=00:00:04.33 bitrate= 968.0kbits/s speed=0.0152x elapsed=0:04:45.52    \nframe=  106 fps=0.4 q=43.2 size=     512KiB time=00:00:04.33 bitrate= 968.0kbits/s speed=0.0151x elapsed=0:04:46.03    \nframe=  106 fps=0.4 q=43.2 size=     512KiB time=00:00:04.33 bitrate= 968.0kbits/s speed=0.0151x elapsed=0:04:46.56    \nframe=  106 fps=0.4 q=43.2 size=     512KiB time=00:00:04.33 bitrate= 968.0kbits/s speed=0.0151x elapsed=0:04:47.10    \nframe=  106 fps=0.4 q=43.2 size=     512KiB time=00:00:04.33 bitrate= 968.0kbits/s speed=0.0151x elapsed=0:04:47.63    \nframe=  106 fps=0.4 q=43.2 size=     512KiB time=00:00:04.33 bitrate= 968.0kbits/s speed=0.015x elapsed=0:04:48.14    \nframe=  106 fps=0.4 q=43.2 size=     512KiB time=00:00:04.33 bitrate= 968.0kbits/s speed=0.015x elapsed=0:04:48.65    \nframe=  107 fps=0.4 q=38.1 size=     512KiB time=00:00:04.37 bitrate= 958.8kbits/s speed=0.0151x elapsed=0:04:49.17    \nframe=  107 fps=0.4 q=38.1 size=     512KiB time=00:00:04.37 bitrate= 958.8kbits/s speed=0.0151x elapsed=0:04:49.68    \nframe=  107 fps=0.4 q=38.1 size=     512KiB time=00:00:04.37 bitrate= 958.8kbits/s speed=0.0151x elapsed=0:04:50.21    \nframe=  107 fps=0.4 q=38.1 size=     512KiB time=00:00:04.37 bitrate= 958.8kbits/s speed=0.015x elapsed=0:04:50.72    \nframe=  108 fps=0.4 q=40.5 size=     512KiB time=00:00:04.41 bitrate= 949.7kbits/s speed=0.0152x elapsed=0:04:51.24    \nframe=  108 fps=0.4 q=40.5 size=     512KiB time=00:00:04.41 bitrate= 949.7kbits/s speed=0.0151x elapsed=0:04:51.75    \nframe=  108 fps=0.4 q=40.5 size=     512KiB time=00:00:04.41 bitrate= 949.7kbits/s speed=0.0151x elapsed=0:04:52.27    \nframe=  108 fps=0.4 q=40.5 size=     512KiB time=00:00:04.41 bitrate= 949.7kbits/s speed=0.0151x elapsed=0:04:52.78    \nframe=  108 fps=0.4 q=40.5 size=     512KiB time=00:00:04.41 bitrate= 949.7kbits/s speed=0.0151x elapsed=0:04:53.29    \nframe=  109 fps=0.4 q=43.6 size=     512KiB time=00:00:04.45 bitrate= 940.9kbits/s speed=0.0152x elapsed=0:04:53.82    \nframe=  109 fps=0.4 q=43.6 size=     512KiB time=00:00:04.45 bitrate= 940.9kbits/s speed=0.0151x elapsed=0:04:54.34    \nframe=  109 fps=0.4 q=43.6 size=     512KiB time=00:00:04.45 bitrate= 940.9kbits/s speed=0.0151x elapsed=0:04:54.86    \nframe=  109 fps=0.4 q=43.6 size=     512KiB time=00:00:04.45 bitrate= 940.9kbits/s speed=0.0151x elapsed=0:04:55.38    \nframe=  109 fps=0.4 q=43.6 size=     512KiB time=00:00:04.45 bitrate= 940.9kbits/s speed=0.0151x elapsed=0:04:55.90    \nframe=  109 fps=0.4 q=43.6 size=     512KiB time=00:00:04.45 bitrate= 940.9kbits/s speed=0.015x elapsed=0:04:56.41    \nframe=  109 fps=0.4 q=43.6 size=     512KiB time=00:00:04.45 bitrate= 940.9kbits/s speed=0.015x elapsed=0:04:56.93    \nframe=  110 fps=0.4 q=43.4 size=     512KiB time=00:00:04.50 bitrate= 932.1kbits/s speed=0.0151x elapsed=0:04:57.44    \nframe=  110 fps=0.4 q=43.4 size=     512KiB time=00:00:04.50 bitrate= 932.1kbits/s speed=0.0151x elapsed=0:04:57.96    \nframe=  110 fps=0.4 q=43.4 size=     512KiB time=00:00:04.50 bitrate= 932.1kbits/s speed=0.0151x elapsed=0:04:58.47    \nframe=  110 fps=0.4 q=43.4 size=     512KiB time=00:00:04.50 bitrate= 932.1kbits/s speed=0.0151x elapsed=0:04:58.99    \nframe=  111 fps=0.4 q=38.0 size=     512KiB time=00:00:04.54 bitrate= 923.6kbits/s speed=0.0152x elapsed=0:04:59.49    \nframe=  111 fps=0.4 q=38.0 size=     512KiB time=00:00:04.54 bitrate= 923.6kbits/s speed=0.0151x elapsed=0:05:00.02    \nframe=  111 fps=0.4 q=38.0 size=     512KiB time=00:00:04.54 bitrate= 923.6kbits/s speed=0.0151x elapsed=0:05:00.53    \nframe=  112 fps=0.4 q=40.4 size=     512KiB time=00:00:04.58 bitrate= 915.2kbits/s speed=0.0152x elapsed=0:05:01.05    \nframe=  112 fps=0.4 q=40.4 size=     512KiB time=00:00:04.58 bitrate= 915.2kbits/s speed=0.0152x elapsed=0:05:01.56    \nframe=  112 fps=0.4 q=40.4 size=     512KiB time=00:00:04.58 bitrate= 915.2kbits/s speed=0.0152x elapsed=0:05:02.08    \nframe=  112 fps=0.4 q=40.4 size=     512KiB time=00:00:04.58 bitrate= 915.2kbits/s speed=0.0151x elapsed=0:05:02.59    \nframe=  113 fps=0.4 q=43.4 size=     512KiB time=00:00:04.62 bitrate= 907.0kbits/s speed=0.0153x elapsed=0:05:03.11    \nframe=  113 fps=0.4 q=43.4 size=     512KiB time=00:00:04.62 bitrate= 907.0kbits/s speed=0.0152x elapsed=0:05:03.62    \nframe=  113 fps=0.4 q=43.4 size=     512KiB time=00:00:04.62 bitrate= 907.0kbits/s speed=0.0152x elapsed=0:05:04.15    \nframe=  113 fps=0.4 q=43.4 size=     512KiB time=00:00:04.62 bitrate= 907.0kbits/s speed=0.0152x elapsed=0:05:04.66    \nframe=  113 fps=0.4 q=43.4 size=     512KiB time=00:00:04.62 bitrate= 907.0kbits/s speed=0.0152x elapsed=0:05:05.18    \nframe=  113 fps=0.4 q=43.4 size=     512KiB time=00:00:04.62 bitrate= 907.0kbits/s speed=0.0151x elapsed=0:05:05.70    \nframe=  113 fps=0.4 q=43.4 size=     512KiB time=00:00:04.62 bitrate= 907.0kbits/s speed=0.0151x elapsed=0:05:06.22    \nframe=  113 fps=0.4 q=43.4 size=     512KiB time=00:00:04.62 bitrate= 907.0kbits/s speed=0.0151x elapsed=0:05:06.73    \nframe=  114 fps=0.4 q=43.3 size=     512KiB time=00:00:04.66 bitrate= 898.9kbits/s speed=0.0152x elapsed=0:05:07.25    \nframe=  114 fps=0.4 q=43.3 size=     512KiB time=00:00:04.66 bitrate= 898.9kbits/s speed=0.0152x elapsed=0:05:07.77    \nframe=  114 fps=0.4 q=43.3 size=     512KiB time=00:00:04.66 bitrate= 898.9kbits/s speed=0.0151x elapsed=0:05:08.28    \nframe=  115 fps=0.4 q=37.9 size=     512KiB time=00:00:04.70 bitrate= 890.9kbits/s speed=0.0152x elapsed=0:05:08.80    \nframe=  115 fps=0.4 q=37.9 size=     512KiB time=00:00:04.70 bitrate= 890.9kbits/s speed=0.0152x elapsed=0:05:09.32    \nframe=  116 fps=0.4 q=40.6 size=     512KiB time=00:00:04.75 bitrate= 883.1kbits/s speed=0.0153x elapsed=0:05:09.83    \nframe=  116 fps=0.4 q=40.6 size=     512KiB time=00:00:04.75 bitrate= 883.1kbits/s speed=0.0153x elapsed=0:05:10.34    \nframe=  116 fps=0.4 q=40.6 size=     512KiB time=00:00:04.75 bitrate= 883.1kbits/s speed=0.0153x elapsed=0:05:10.85    \nframe=  116 fps=0.4 q=40.6 size=     512KiB time=00:00:04.75 bitrate= 883.1kbits/s speed=0.0153x elapsed=0:05:11.38    \nframe=  116 fps=0.4 q=40.6 size=     512KiB time=00:00:04.75 bitrate= 883.1kbits/s speed=0.0152x elapsed=0:05:11.89    \nframe=  117 fps=0.4 q=43.1 size=     512KiB time=00:00:04.79 bitrate= 875.4kbits/s speed=0.0153x elapsed=0:05:12.41    \nframe=  117 fps=0.4 q=43.1 size=     512KiB time=00:00:04.79 bitrate= 875.4kbits/s speed=0.0153x elapsed=0:05:12.92    \nframe=  117 fps=0.4 q=43.1 size=     512KiB time=00:00:04.79 bitrate= 875.4kbits/s speed=0.0153x elapsed=0:05:13.44    \nframe=  117 fps=0.4 q=43.1 size=     512KiB time=00:00:04.79 bitrate= 875.4kbits/s speed=0.0153x elapsed=0:05:13.95    \nframe=  117 fps=0.4 q=43.1 size=     512KiB time=00:00:04.79 bitrate= 875.4kbits/s speed=0.0152x elapsed=0:05:14.47    \nframe=  117 fps=0.4 q=43.1 size=     512KiB time=00:00:04.79 bitrate= 875.4kbits/s speed=0.0152x elapsed=0:05:14.98    \nframe=  118 fps=0.4 q=43.0 size=     512KiB time=00:00:04.83 bitrate= 867.9kbits/s speed=0.0153x elapsed=0:05:15.51    \nframe=  118 fps=0.4 q=43.0 size=     512KiB time=00:00:04.83 bitrate= 867.9kbits/s speed=0.0153x elapsed=0:05:16.01    \nframe=  118 fps=0.4 q=43.0 size=     512KiB time=00:00:04.83 bitrate= 867.9kbits/s speed=0.0153x elapsed=0:05:16.53    \nframe=  118 fps=0.4 q=43.0 size=     512KiB time=00:00:04.83 bitrate= 867.9kbits/s speed=0.0152x elapsed=0:05:17.05    \nframe=  118 fps=0.4 q=43.0 size=     512KiB time=00:00:04.83 bitrate= 867.9kbits/s speed=0.0152x elapsed=0:05:17.57    \nframe=  119 fps=0.4 q=38.4 size=     512KiB time=00:00:04.87 bitrate= 860.4kbits/s speed=0.0153x elapsed=0:05:18.15    \nframe=  120 fps=0.4 q=40.7 size=     512KiB time=00:00:04.91 bitrate= 853.2kbits/s speed=0.0154x elapsed=0:05:18.72    \nframe=  120 fps=0.4 q=40.7 size=     512KiB time=00:00:04.91 bitrate= 853.2kbits/s speed=0.0154x elapsed=0:05:19.24    \nframe=  120 fps=0.4 q=40.7 size=     512KiB time=00:00:04.91 bitrate= 853.2kbits/s speed=0.0154x elapsed=0:05:19.76    \nframe=  120 fps=0.4 q=40.7 size=     512KiB time=00:00:04.91 bitrate= 853.2kbits/s speed=0.0154x elapsed=0:05:20.29    \nframe=  120 fps=0.4 q=40.7 size=     512KiB time=00:00:04.91 bitrate= 853.2kbits/s speed=0.0153x elapsed=0:05:20.84    \nframe=  120 fps=0.4 q=40.7 size=     512KiB time=00:00:04.91 bitrate= 853.2kbits/s speed=0.0153x elapsed=0:05:21.36    \nframe=  120 fps=0.4 q=40.7 size=     512KiB time=00:00:04.91 bitrate= 853.2kbits/s speed=0.0153x elapsed=0:05:21.88    \nframe=  120 fps=0.4 q=40.7 size=     512KiB time=00:00:04.91 bitrate= 853.2kbits/s speed=0.0152x elapsed=0:05:22.41    \nframe=  121 fps=0.4 q=43.3 size=     512KiB time=00:00:04.95 bitrate= 846.0kbits/s speed=0.0154x elapsed=0:05:22.93    \nframe=  121 fps=0.4 q=43.3 size=     512KiB time=00:00:04.95 bitrate= 846.0kbits/s speed=0.0153x elapsed=0:05:23.45    \nframe=  121 fps=0.4 q=43.3 size=     512KiB time=00:00:04.95 bitrate= 846.0kbits/s speed=0.0153x elapsed=0:05:23.99    \nframe=  121 fps=0.4 q=43.3 size=     512KiB time=00:00:04.95 bitrate= 846.0kbits/s speed=0.0153x elapsed=0:05:24.50    \nframe=  121 fps=0.4 q=43.3 size=     512KiB time=00:00:04.95 bitrate= 846.0kbits/s speed=0.0153x elapsed=0:05:25.08    \nframe=  122 fps=0.4 q=43.3 size=     512KiB time=00:00:05.00 bitrate= 838.9kbits/s speed=0.0154x elapsed=0:05:25.59    \nframe=  122 fps=0.4 q=43.3 size=     512KiB time=00:00:05.00 bitrate= 838.9kbits/s speed=0.0153x elapsed=0:05:26.16    \nframe=  122 fps=0.4 q=43.3 size=     512KiB time=00:00:05.00 bitrate= 838.9kbits/s speed=0.0153x elapsed=0:05:26.68    \nframe=  123 fps=0.4 q=38.1 size=     512KiB time=00:00:05.04 bitrate= 832.0kbits/s speed=0.0154x elapsed=0:05:27.22    \nframe=  123 fps=0.4 q=38.1 size=     512KiB time=00:00:05.04 bitrate= 832.0kbits/s speed=0.0154x elapsed=0:05:27.76    \nframe=  123 fps=0.4 q=38.1 size=     512KiB time=00:00:05.04 bitrate= 832.0kbits/s speed=0.0154x elapsed=0:05:28.30    \nframe=  123 fps=0.4 q=38.1 size=     512KiB time=00:00:05.04 bitrate= 832.0kbits/s speed=0.0153x elapsed=0:05:28.82    \nframe=  123 fps=0.4 q=38.1 size=     512KiB time=00:00:05.04 bitrate= 832.0kbits/s speed=0.0153x elapsed=0:05:29.35    \nframe=  123 fps=0.4 q=38.1 size=     512KiB time=00:00:05.04 bitrate= 832.0kbits/s speed=0.0153x elapsed=0:05:29.86    \nframe=  124 fps=0.4 q=40.8 size=     512KiB time=00:00:05.08 bitrate= 825.2kbits/s speed=0.0154x elapsed=0:05:30.37    \nframe=  124 fps=0.4 q=40.8 size=     512KiB time=00:00:05.08 bitrate= 825.2kbits/s speed=0.0154x elapsed=0:05:30.90    \nframe=  125 fps=0.4 q=43.6 size=     512KiB time=00:00:05.12 bitrate= 818.5kbits/s speed=0.0155x elapsed=0:05:31.43    \nframe=  125 fps=0.4 q=43.6 size=     512KiB time=00:00:05.12 bitrate= 818.5kbits/s speed=0.0154x elapsed=0:05:31.94    \nframe=  125 fps=0.4 q=43.6 size=     512KiB time=00:00:05.12 bitrate= 818.5kbits/s speed=0.0154x elapsed=0:05:32.47    \nframe=  125 fps=0.4 q=43.6 size=     512KiB time=00:00:05.12 bitrate= 818.5kbits/s speed=0.0154x elapsed=0:05:32.99    \nframe=  125 fps=0.4 q=43.6 size=     512KiB time=00:00:05.12 bitrate= 818.5kbits/s speed=0.0154x elapsed=0:05:33.52    \nframe=  125 fps=0.4 q=43.6 size=     512KiB time=00:00:05.12 bitrate= 818.5kbits/s speed=0.0153x elapsed=0:05:34.05    \nframe=  125 fps=0.4 q=43.6 size=     512KiB time=00:00:05.12 bitrate= 818.5kbits/s speed=0.0153x elapsed=0:05:34.60    \nframe=  126 fps=0.4 q=43.2 size=     512KiB time=00:00:05.16 bitrate= 811.9kbits/s speed=0.0154x elapsed=0:05:35.18    \nframe=  126 fps=0.4 q=43.2 size=     512KiB time=00:00:05.16 bitrate= 811.9kbits/s speed=0.0154x elapsed=0:05:35.72    \nframe=  126 fps=0.4 q=43.2 size=     512KiB time=00:00:05.16 bitrate= 811.9kbits/s speed=0.0154x elapsed=0:05:36.27    \nframe=  127 fps=0.4 q=38.3 size=     512KiB time=00:00:05.20 bitrate= 805.4kbits/s speed=0.0155x elapsed=0:05:36.84    \nframe=  127 fps=0.4 q=38.3 size=     512KiB time=00:00:05.20 bitrate= 805.4kbits/s speed=0.0154x elapsed=0:05:37.36    \nframe=  127 fps=0.4 q=38.3 size=     512KiB time=00:00:05.20 bitrate= 805.4kbits/s speed=0.0154x elapsed=0:05:37.88    \nframe=  127 fps=0.4 q=38.3 size=     512KiB time=00:00:05.20 bitrate= 805.4kbits/s speed=0.0154x elapsed=0:05:38.40    \nframe=  127 fps=0.4 q=38.3 size=     512KiB time=00:00:05.20 bitrate= 805.4kbits/s speed=0.0154x elapsed=0:05:38.96    \nframe=  128 fps=0.4 q=40.4 size=     512KiB time=00:00:05.25 bitrate= 799.0kbits/s speed=0.0155x elapsed=0:05:39.49    \nframe=  128 fps=0.4 q=40.4 size=     512KiB time=00:00:05.25 bitrate= 799.0kbits/s speed=0.0154x elapsed=0:05:40.04    \nframe=  129 fps=0.4 q=43.6 size=     512KiB time=00:00:05.29 bitrate= 792.7kbits/s speed=0.0155x elapsed=0:05:40.59    \nframe=  129 fps=0.4 q=43.6 size=     512KiB time=00:00:05.29 bitrate= 792.7kbits/s speed=0.0155x elapsed=0:05:41.11    \nframe=  129 fps=0.4 q=43.6 size=     512KiB time=00:00:05.29 bitrate= 792.7kbits/s speed=0.0155x elapsed=0:05:41.63    \nframe=  129 fps=0.4 q=43.6 size=     512KiB time=00:00:05.29 bitrate= 792.7kbits/s speed=0.0155x elapsed=0:05:42.19    \nframe=  130 fps=0.4 q=43.3 size=     512KiB time=00:00:05.33 bitrate= 786.5kbits/s speed=0.0156x elapsed=0:05:42.70    \nframe=  130 fps=0.4 q=43.3 size=     512KiB time=00:00:05.33 bitrate= 786.5kbits/s speed=0.0155x elapsed=0:05:43.22    \nframe=  130 fps=0.4 q=43.3 size=     512KiB time=00:00:05.33 bitrate= 786.5kbits/s speed=0.0155x elapsed=0:05:43.74    \nframe=  130 fps=0.4 q=43.3 size=     512KiB time=00:00:05.33 bitrate= 786.5kbits/s speed=0.0155x elapsed=0:05:44.31    \nframe=  130 fps=0.4 q=43.3 size=     512KiB time=00:00:05.33 bitrate= 786.5kbits/s speed=0.0155x elapsed=0:05:44.86    \nframe=  131 fps=0.4 q=38.4 size=     512KiB time=00:00:05.37 bitrate= 780.4kbits/s speed=0.0156x elapsed=0:05:45.40    \nframe=  131 fps=0.4 q=38.4 size=     512KiB time=00:00:05.37 bitrate= 780.4kbits/s speed=0.0155x elapsed=0:05:45.93    \nframe=  131 fps=0.4 q=38.4 size=     512KiB time=00:00:05.37 bitrate= 780.4kbits/s speed=0.0155x elapsed=0:05:46.47    \nframe=  131 fps=0.4 q=38.4 size=     512KiB time=00:00:05.37 bitrate= 780.4kbits/s speed=0.0155x elapsed=0:05:47.01    \nframe=  132 fps=0.4 q=40.5 size=     512KiB time=00:00:05.41 bitrate= 774.4kbits/s speed=0.0156x elapsed=0:05:47.54    \nframe=  132 fps=0.4 q=40.5 size=     512KiB time=00:00:05.41 bitrate= 774.4kbits/s speed=0.0156x elapsed=0:05:48.06    \nframe=  133 fps=0.4 q=43.3 size=     512KiB time=00:00:05.45 bitrate= 768.5kbits/s speed=0.0157x elapsed=0:05:48.64    \nframe=  133 fps=0.4 q=43.3 size=     512KiB time=00:00:05.45 bitrate= 768.5kbits/s speed=0.0156x elapsed=0:05:49.16    \nframe=  133 fps=0.4 q=43.3 size=     512KiB time=00:00:05.45 bitrate= 768.5kbits/s speed=0.0156x elapsed=0:05:49.69    \nframe=  133 fps=0.4 q=43.3 size=     512KiB time=00:00:05.45 bitrate= 768.5kbits/s speed=0.0156x elapsed=0:05:50.26    \nframe=  134 fps=0.4 q=43.2 size=     512KiB time=00:00:05.50 bitrate= 762.7kbits/s speed=0.0157x elapsed=0:05:50.79    \nframe=  134 fps=0.4 q=43.2 size=     512KiB time=00:00:05.50 bitrate= 762.7kbits/s speed=0.0157x elapsed=0:05:51.33    \nframe=  134 fps=0.4 q=43.2 size=     512KiB time=00:00:05.50 bitrate= 762.7kbits/s speed=0.0156x elapsed=0:05:51.84    \nframe=  135 fps=0.4 q=38.9 size=     512KiB time=00:00:05.50 bitrate= 762.7kbits/s speed=0.0156x elapsed=0:05:52.36    \nframe=  135 fps=0.4 q=38.9 size=     512KiB time=00:00:05.54 bitrate= 756.9kbits/s speed=0.0157x elapsed=0:05:52.93    \nframe=  136 fps=0.4 q=40.4 size=     512KiB time=00:00:05.58 bitrate= 751.3kbits/s speed=0.0158x elapsed=0:05:53.46    \nframe=  136 fps=0.4 q=40.4 size=     512KiB time=00:00:05.58 bitrate= 751.3kbits/s speed=0.0158x elapsed=0:05:54.01    \nframe=  137 fps=0.4 q=42.5 size=     512KiB time=00:00:05.58 bitrate= 751.3kbits/s speed=0.0157x elapsed=0:05:54.56    \nframe=  137 fps=0.4 q=42.5 size=     512KiB time=00:00:05.62 bitrate= 745.7kbits/s speed=0.0158x elapsed=0:05:55.13    \nframe=  137 fps=0.4 q=42.5 size=     512KiB time=00:00:05.62 bitrate= 745.7kbits/s speed=0.0158x elapsed=0:05:55.65    \nframe=  138 fps=0.4 q=42.6 size=     512KiB time=00:00:05.66 bitrate= 740.2kbits/s speed=0.0159x elapsed=0:05:56.17    \nframe=  139 fps=0.4 q=40.4 size=     512KiB time=00:00:05.70 bitrate= 734.8kbits/s speed=0.016x elapsed=0:05:56.70    \nframe=  140 fps=0.4 q=43.2 size=     512KiB time=00:00:05.75 bitrate= 729.5kbits/s speed=0.0161x elapsed=0:05:57.22    \nframe=  142 fps=0.4 q=38.9 size=     512KiB time=00:00:05.83 bitrate= 719.1kbits/s speed=0.0163x elapsed=0:05:57.73    \nframe=  145 fps=0.4 q=46.9 size=     512KiB time=00:00:05.95 bitrate= 704.0kbits/s speed=0.0166x elapsed=0:05:58.25    \nframe=  146 fps=0.4 q=46.0 size=     512KiB time=00:00:06.00 bitrate= 699.1kbits/s speed=0.0167x elapsed=0:05:58.76    \nframe=  147 fps=0.4 q=36.4 size=     512KiB time=00:00:06.04 bitrate= 694.3kbits/s speed=0.0168x elapsed=0:05:59.29    \nframe=  149 fps=0.4 q=39.5 size=     512KiB time=00:00:06.12 bitrate= 684.8kbits/s speed=0.017x elapsed=0:05:59.82    \nframe=  151 fps=0.4 q=35.4 size=     512KiB time=00:00:06.20 bitrate= 675.6kbits/s speed=0.0172x elapsed=0:06:00.34    \nframe=  152 fps=0.4 q=38.5 size=     512KiB time=00:00:06.25 bitrate= 671.1kbits/s speed=0.0173x elapsed=0:06:00.86    \nframe=  154 fps=0.4 q=39.0 size=     512KiB time=00:00:06.33 bitrate= 662.3kbits/s speed=0.0175x elapsed=0:06:01.37    \nframe=  156 fps=0.4 q=37.2 size=     768KiB time=00:00:06.41 bitrate= 980.5kbits/s speed=0.0177x elapsed=0:06:01.90    \nframe=  158 fps=0.4 q=38.4 size=     768KiB time=00:00:06.50 bitrate= 968.0kbits/s speed=0.0179x elapsed=0:06:02.42    \nframe=  159 fps=0.4 q=38.2 size=     768KiB time=00:00:06.54 bitrate= 961.8kbits/s speed=0.018x elapsed=0:06:02.94    \nframe=  160 fps=0.4 q=34.2 size=     768KiB time=00:00:06.58 bitrate= 955.7kbits/s speed=0.0181x elapsed=0:06:03.46    \nframe=  160 fps=0.4 q=34.2 size=     768KiB time=00:00:06.58 bitrate= 955.7kbits/s speed=0.0181x elapsed=0:06:03.96    \nframe=  163 fps=0.4 q=38.4 size=     768KiB time=00:00:06.70 bitrate= 937.9kbits/s speed=0.0184x elapsed=0:06:04.48    \nframe=  164 fps=0.4 q=39.7 size=     768KiB time=00:00:06.75 bitrate= 932.1kbits/s speed=0.0185x elapsed=0:06:05.00    \nframe=  166 fps=0.5 q=34.7 size=     768KiB time=00:00:06.83 bitrate= 920.8kbits/s speed=0.0187x elapsed=0:06:05.51    \nframe=  167 fps=0.5 q=39.4 size=     768KiB time=00:00:06.87 bitrate= 915.2kbits/s speed=0.0188x elapsed=0:06:06.04    \nframe=  169 fps=0.5 q=38.7 size=     768KiB time=00:00:06.95 bitrate= 904.2kbits/s speed=0.019x elapsed=0:06:06.56    \nframe=  170 fps=0.5 q=34.3 size=     768KiB time=00:00:07.00 bitrate= 898.8kbits/s speed=0.0191x elapsed=0:06:07.08    \nframe=  171 fps=0.5 q=38.2 size=     768KiB time=00:00:07.04 bitrate= 893.5kbits/s speed=0.0192x elapsed=0:06:07.60    \nframe=  173 fps=0.5 q=38.5 size=     768KiB time=00:00:07.12 bitrate= 883.1kbits/s speed=0.0194x elapsed=0:06:08.11    \nframe=  174 fps=0.5 q=37.4 size=     768KiB time=00:00:07.16 bitrate= 877.9kbits/s speed=0.0194x elapsed=0:06:08.63    \nframe=  176 fps=0.5 q=37.8 size=     768KiB time=00:00:07.25 bitrate= 867.8kbits/s speed=0.0196x elapsed=0:06:09.14    \nframe=  178 fps=0.5 q=37.4 size=     768KiB time=00:00:07.33 bitrate= 858.0kbits/s speed=0.0198x elapsed=0:06:09.66    \nframe=  179 fps=0.5 q=37.4 size=     768KiB time=00:00:07.37 bitrate= 853.1kbits/s speed=0.0199x elapsed=0:06:10.18    \nframe=  180 fps=0.5 q=33.6 size=     768KiB time=00:00:07.41 bitrate= 848.3kbits/s speed=0.02x elapsed=0:06:10.70    \nframe=  182 fps=0.5 q=37.3 size=     768KiB time=00:00:07.50 bitrate= 838.9kbits/s speed=0.0202x elapsed=0:06:11.22    \nframe=  183 fps=0.5 q=37.4 size=     768KiB time=00:00:07.54 bitrate= 834.3kbits/s speed=0.0203x elapsed=0:06:11.74    \nframe=  184 fps=0.5 q=33.1 size=     768KiB time=00:00:07.58 bitrate= 829.7kbits/s speed=0.0204x elapsed=0:06:12.26    \nframe=  185 fps=0.5 q=36.4 size=     768KiB time=00:00:07.62 bitrate= 825.2kbits/s speed=0.0205x elapsed=0:06:12.77    \nframe=  187 fps=0.5 q=37.2 size=     768KiB time=00:00:07.70 bitrate= 816.2kbits/s speed=0.0206x elapsed=0:06:13.29    \nframe=  188 fps=0.5 q=33.2 size=     768KiB time=00:00:07.75 bitrate= 811.8kbits/s speed=0.0207x elapsed=0:06:13.81    \nframe=  190 fps=0.5 q=37.6 size=     768KiB time=00:00:07.83 bitrate= 803.2kbits/s speed=0.0209x elapsed=0:06:14.31    \nframe=  192 fps=0.5 q=36.6 size=     768KiB time=00:00:07.91 bitrate= 794.8kbits/s speed=0.0211x elapsed=0:06:14.83    \nframe=  193 fps=0.5 q=32.1 size=     768KiB time=00:00:07.95 bitrate= 790.6kbits/s speed=0.0212x elapsed=0:06:15.36    \nframe=  195 fps=0.5 q=37.1 size=     768KiB time=00:00:08.04 bitrate= 782.4kbits/s speed=0.0214x elapsed=0:06:15.88    \nframe=  197 fps=0.5 q=38.8 size=     768KiB time=00:00:08.12 bitrate= 774.4kbits/s speed=0.0216x elapsed=0:06:16.41    \nframe=  199 fps=0.5 q=34.2 size=     768KiB time=00:00:08.20 bitrate= 766.5kbits/s speed=0.0218x elapsed=0:06:16.92    \nframe=  200 fps=0.5 q=39.3 size=     768KiB time=00:00:08.25 bitrate= 762.6kbits/s speed=0.0219x elapsed=0:06:17.44    \nframe=  202 fps=0.5 q=37.6 size=     768KiB time=00:00:08.33 bitrate= 755.0kbits/s speed=0.022x elapsed=0:06:17.97    \nframe=  203 fps=0.5 q=32.8 size=     768KiB time=00:00:08.37 bitrate= 751.3kbits/s speed=0.0221x elapsed=0:06:18.49    \nframe=  204 fps=0.5 q=36.8 size=     768KiB time=00:00:08.41 bitrate= 747.5kbits/s speed=0.0222x elapsed=0:06:18.99    \nframe=  205 fps=0.5 q=37.9 size=     768KiB time=00:00:08.45 bitrate= 743.9kbits/s speed=0.0223x elapsed=0:06:19.51    \nframe=  207 fps=0.5 q=35.8 size=     768KiB time=00:00:08.54 bitrate= 736.6kbits/s speed=0.0225x elapsed=0:06:20.03    \nframe=  208 fps=0.5 q=32.0 size=     768KiB time=00:00:08.58 bitrate= 733.0kbits/s speed=0.0226x elapsed=0:06:20.55    \nframe=  209 fps=0.5 q=35.5 size=    1024KiB time=00:00:08.62 bitrate= 972.6kbits/s speed=0.0226x elapsed=0:06:21.07    \nframe=  212 fps=0.6 q=35.9 size=    1024KiB time=00:00:08.75 bitrate= 958.7kbits/s speed=0.0229x elapsed=0:06:21.57    \nframe=  213 fps=0.6 q=31.6 size=    1024KiB time=00:00:08.79 bitrate= 954.2kbits/s speed=0.023x elapsed=0:06:22.09    \nframe=  214 fps=0.6 q=35.4 size=    1024KiB time=00:00:08.83 bitrate= 949.7kbits/s speed=0.0231x elapsed=0:06:22.60    \nframe=  216 fps=0.6 q=36.4 size=    1024KiB time=00:00:08.91 bitrate= 940.8kbits/s speed=0.0233x elapsed=0:06:23.13    \nframe=  217 fps=0.6 q=35.9 size=    1024KiB time=00:00:08.95 bitrate= 936.4kbits/s speed=0.0234x elapsed=0:06:23.64    \nframe=  218 fps=0.6 q=31.6 size=    1024KiB time=00:00:09.00 bitrate= 932.1kbits/s speed=0.0234x elapsed=0:06:24.18    \nframe=  221 fps=0.6 q=35.8 size=    1024KiB time=00:00:09.12 bitrate= 919.3kbits/s speed=0.0237x elapsed=0:06:24.69    \nframe=  222 fps=0.6 q=35.0 size=    1024KiB time=00:00:09.16 bitrate= 915.2kbits/s speed=0.0238x elapsed=0:06:25.20    \nframe=  223 fps=0.6 q=30.8 size=    1024KiB time=00:00:09.20 bitrate= 911.0kbits/s speed=0.0239x elapsed=0:06:25.72    \nframe=  225 fps=0.6 q=35.2 size=    1024KiB time=00:00:09.29 bitrate= 902.8kbits/s speed=0.0241x elapsed=0:06:26.24    \nframe=  226 fps=0.6 q=35.5 size=    1024KiB time=00:00:09.33 bitrate= 898.8kbits/s speed=0.0241x elapsed=0:06:26.75    \nframe=  229 fps=0.6 q=35.3 size=    1024KiB time=00:00:09.45 bitrate= 886.9kbits/s speed=0.0244x elapsed=0:06:27.27    \nframe=  230 fps=0.6 q=33.1 size=    1024KiB time=00:00:09.50 bitrate= 883.0kbits/s speed=0.0245x elapsed=0:06:27.78    \nframe=  231 fps=0.6 q=32.8 size=    1024KiB time=00:00:09.54 bitrate= 879.2kbits/s speed=0.0246x elapsed=0:06:28.30    \nframe=  233 fps=0.6 q=31.5 size=    1024KiB time=00:00:09.62 bitrate= 871.6kbits/s speed=0.0248x elapsed=0:06:28.81    \nframe=  235 fps=0.6 q=31.9 size=    1024KiB time=00:00:09.70 bitrate= 864.1kbits/s speed=0.0249x elapsed=0:06:29.33    \nframe=  236 fps=0.6 q=32.2 size=    1024KiB time=00:00:09.75 bitrate= 860.4kbits/s speed=0.025x elapsed=0:06:29.85    \nframe=  238 fps=0.6 q=29.8 size=    1024KiB time=00:00:09.83 bitrate= 853.1kbits/s speed=0.0252x elapsed=0:06:30.38    \n[mp4 @ 000002193bd7b680] Starting second pass: moving the moov atom to the beginning of the file\n[out#0/mp4 @ 000002193bd7b580] video:1171KiB audio:0KiB subtitle:0KiB other streams:0KiB global headers:2KiB muxing overhead: 0.529611%\nframe=  240 fps=0.6 q=31.6 Lsize=    1177KiB time=00:00:09.91 bitrate= 972.4kbits/s speed=0.0254x elapsed=0:06:30.67    \nx265 [info]: frame I:      2, Avg QP:37.51  kb/s: 5071.39 \nx265 [info]: frame P:     55, Avg QP:36.70  kb/s: 2479.77 \nx265 [info]: frame B:    183, Avg QP:40.33  kb/s: 456.24  \nx265 [info]: Weighted P-Frames: Y:0.0% UV:0.0%\n\nencoded 240 frames in 390.49s (0.61 fps), 958.43 kb/s, Avg QP:39.48\n",
  "seconds": 390.8853249549866,
  "probe_out": {}
}